<svg xmlns="http://www.w3.org/2000/svg" width="22.398" height="20.158" viewBox="0 0 22.398 20.158"><defs><style>.a{fill:none;}.b{fill:#616161;}</style></defs><g transform="translate(-3 -4.5)"><path class="a" d="M7.12,11.98v11.2H22.8l0-11.2Zm12.319,4.48H10.48V14.22h8.959Zm4.482-6.72,0-2.24H6V9.74H23.919Z" transform="translate(-0.76 -0.76)"/><path class="b" d="M23.159,4.5H5.24A2.242,2.242,0,0,0,3,6.74V8.98a2.234,2.234,0,0,0,1.12,1.929V22.419a2.242,2.242,0,0,0,2.24,2.24H22.039a2.242,2.242,0,0,0,2.24-2.24V10.908A2.234,2.234,0,0,0,25.4,8.98V6.74A2.242,2.242,0,0,0,23.159,4.5ZM5.24,6.74H23.159l0,2.24H5.24ZM6.36,22.419V11.22H22.039l0,11.2Z"/><path class="b" d="M12,16.5h8.959v2.24H12Z" transform="translate(-2.28 -3.041)"/></g></svg>