<svg xmlns="http://www.w3.org/2000/svg" width="30" height="35.422" viewBox="0 0 30 35.422"><path d="M49.154,10.932a3.536,3.536,0,0,0-1.41.292A3.583,3.583,0,0,0,44.42,8.951a3.536,3.536,0,0,0-1.562.362,3.577,3.577,0,0,0-3.172-1.94,3.533,3.533,0,0,0-1.157.195V3.6a3.577,3.577,0,1,0-7.154,0V17.871L28.8,14.924c-.018-.02-.036-.04-.055-.059a3.586,3.586,0,0,0-2.535-1.057H26.19a3.538,3.538,0,0,0-2.522,1.04c-1.183,1.183-1.248,2.94-.179,4.819,1.384,2.432,2.889,4.725,4.216,6.748.97,1.479,1.887,2.875,2.556,4.03.581,1,2.123,4.252,2.139,4.285a1.21,1.21,0,0,0,1.093.691h15.3a1.21,1.21,0,0,0,1.152-.839c.285-.887,2.788-8.754,2.788-11.792V14.534A3.594,3.594,0,0,0,49.154,10.932ZM48,14.534a1.157,1.157,0,1,1,2.314,0v8.257c0,2.019-1.552,7.447-2.408,10.211H34.256c-.5-1.044-1.442-2.977-1.9-3.77-.7-1.213-1.638-2.636-2.626-4.144-1.308-1.993-2.79-4.252-4.136-6.617-.351-.618-.673-1.451-.212-1.912a1.155,1.155,0,0,1,.817-.331,1.182,1.182,0,0,1,.812.325l4.666,5.338a1.21,1.21,0,0,0,2.121-.8V3.6a1.158,1.158,0,1,1,2.315,0V14.9a1.21,1.21,0,0,0,2.42,0V10.974a1.157,1.157,0,1,1,2.314,0v5.5a1.21,1.21,0,1,0,2.42,0V12.553a1.158,1.158,0,1,1,2.315,0v5.5a1.21,1.21,0,1,0,2.42,0V14.534Z" transform="translate(-22.731)"/></svg>