<svg width="27" height="16" viewBox="0 0 27 16" fill="none" xmlns="http://www.w3.org/2000/svg">
<path fill-rule="evenodd" clip-rule="evenodd" d="M23.3824 10.3662C24.8824 10.3662 26.1177 11.6282 26.1177 13.1606C26.1177 14.693 24.8824 15.9549 23.3824 15.9549C21.8824 15.9549 20.6471 14.693 20.6471 13.1606C20.6471 11.6282 21.8382 10.3662 23.3824 10.3662Z" fill="#2F313E"/>
<path fill-rule="evenodd" clip-rule="evenodd" d="M23.3823 11.9888C24 11.9888 24.5294 12.5296 24.5294 13.1606C24.5294 13.7916 24 14.3324 23.3823 14.3324C22.7206 14.3324 22.2353 13.7916 22.2353 13.1606C22.2353 12.5296 22.7206 11.9888 23.3823 11.9888Z" fill="white"/>
<path fill-rule="evenodd" clip-rule="evenodd" d="M11.6029 10.3662C13.1029 10.3662 14.3382 11.6282 14.3382 13.1606C14.3382 14.693 13.1029 15.9549 11.6029 15.9549C10.1029 15.9549 8.86765 14.693 8.86765 13.1606C8.86765 11.6282 10.1029 10.3662 11.6029 10.3662Z" fill="#2F313E"/>
<path fill-rule="evenodd" clip-rule="evenodd" d="M11.6029 11.9888C12.2206 11.9888 12.75 12.5296 12.75 13.1606C12.75 13.7916 12.2206 14.3324 11.6029 14.3324C10.9412 14.3324 10.4559 13.7916 10.4559 13.1606C10.4559 12.5296 10.9853 11.9888 11.6029 11.9888Z" fill="white"/>
<path fill-rule="evenodd" clip-rule="evenodd" d="M9.08823 9.41968C7.45588 10.276 7.23529 11.7183 7.23529 13.2056C10.4118 13.2056 13.5882 13.2056 16.7647 13.2056C18.9706 13.2056 19.5441 12.7549 20.1176 11.9436C19.9853 12.3493 19.8529 12.8 19.8971 13.2056C22.7206 13.2056 24.2206 13.2056 27.0441 13.2056C27.0441 10.2309 24.2206 9.46475 23.2059 9.6901C22.7647 6.44503 21.6176 4.28165 19.7647 2.97461C21.2206 8.69855 20.1176 11.8986 16.5441 11.9436C16.3676 10.9971 17.0735 10.4112 16.9853 9.41968C14.3382 9.41968 11.6912 9.41968 9.08823 9.41968Z" fill="#2F313E"/>
<path fill-rule="evenodd" clip-rule="evenodd" d="M19.8971 2.88452C20.7353 2.88452 21.6177 2.88452 22.4559 2.88452C22.8971 3.60565 22.8529 4.37185 22.4559 5.18311L19.8971 4.73241C19.4118 4.64227 19.0147 4.32677 19.0147 3.831C18.9706 3.29016 19.4118 2.88452 19.8971 2.88452Z" fill="#2F313E"/>
<path fill-rule="evenodd" clip-rule="evenodd" d="M10.1029 0H15.8382C16.7647 0 17.4706 0.766197 17.4706 1.66761V7.43662C17.4706 8.33803 16.7647 9.10423 15.8382 9.10423H10.1029C9.22058 9.10423 8.47058 8.33803 8.47058 7.43662V1.66761C8.47058 0.766197 9.22058 0 10.1029 0Z" fill="#2F313E"/>
<path fill-rule="evenodd" clip-rule="evenodd" d="M5.07353 6.58022H8.07353V7.43656C8.07353 7.70698 8.11765 7.93233 8.25 8.15768H5.11765C4.67647 8.15768 4.36765 7.79712 4.36765 7.39149C4.27941 6.94078 4.63235 6.58022 5.07353 6.58022ZM2.64706 1.35205H8.07353C8.07353 1.44219 8.02941 1.5774 8.02941 1.66754V2.92952H2.64706C2.20588 2.92952 1.85294 2.56895 1.85294 2.11825C1.85294 1.71261 2.20588 1.35205 2.64706 1.35205ZM0.75 4.05628H8.02941V5.63374H0.75C0.308824 5.63374 0 5.27318 0 4.86754C0 4.41684 0.352941 4.05628 0.75 4.05628Z" fill="#2F313E"/>
</svg>
