<svg id="line" height="512" viewBox="0 0 32 32" width="512" xmlns="http://www.w3.org/2000/svg"><path d="m6.89728 16.62988a.43526.43526 0 0 0 0-.87036.43526.43526 0 0 0 0 .87036z"/><path d="m9.70337 15.36761a.43523.43523 0 0 0 0-.87029.43523.43523 0 0 0 0 .87029z"/><path d="m12.08215 17.20776a.43526.43526 0 0 0 0-.87036.43526.43526 0 0 0 0 .87036z"/><path d="m13.92224 14.9325a.43523.43523 0 0 0 0-.8703.43523.43523 0 0 0 0 .8703z"/><path d="m16.05475 16.3374a.43523.43523 0 0 0 0-.8703.43523.43523 0 0 0 0 .8703z"/><path d="m29 8.34912h-6.13525v-2.86035l2.11225-1.74951a.5002.5002 0 0 0 -.63773-.77048l-2.29337 1.89938a.50059.50059 0 0 0 -.18115.38526v3.0957h-6.13575a.49972.49972 0 0 0 -.5.5v2.03565a.49972.49972 0 0 0 .5.5h.57831l.03168.57006a6.27568 6.27568 0 0 0 -1.73645-.24878h-5.79883a6.392 6.392 0 0 0 -6.30363 7.02445c.01314.71687.99666.45421 1.44134.5v1.5515a1.60241 1.60241 0 0 0 .00384 3.015 2.50738 2.50738 0 0 0 .29883 1.19281h-1.24409c-.47164.00694-.53636.46231-.5.84863a3.31142 3.31142 0 0 0 3.30762 3.30756h11.791a.611.611 0 0 1 .17139-.00586h9.18999a.4997.4997 0 0 0 .499-.47217l.96363-17.2832h.57737a.49972.49972 0 0 0 .5-.5v-2.03565a.49971.49971 0 0 0 -.5-.5zm-25.5 9.66065a5.30993 5.30993 0 0 1 5.30371-5.30372h5.79883a5.32184 5.32184 0 0 1 5.3037 5.52443h-.9414-15.46484zm17.26239-1.32917a2.20294 2.20294 0 1 1 -.33533 2.54566.4974.4974 0 0 0 .47919-.49579 8.73553 8.73553 0 0 0 -.14386-2.04987zm-2.29755 2.54987v1.33105h-13.52343v-1.33105zm-13.90576 2.3706c.07726-.11387 14.07938-.001 14.18039-.03963.39978.09923.79843.36561.78248.71886 0 .38913-.44138.71824-.96433.71824a1.07444 1.07444 0 0 1 -.811-.33448 2.01159 2.01159 0 0 0 -2.94775 0 1.20318 1.20318 0 0 1 -1.62158 0 2.10208 2.10208 0 0 0 -2.94825 0 1.20318 1.20318 0 0 1 -1.62158 0 2.10148 2.10148 0 0 0 -2.94775 0 1.07367 1.07367 0 0 1 -.811.33448c-1.04093.00626-1.35903-1.13338-.28963-1.39747zm.4137 2.385a2.0318 2.0318 0 0 0 1.44372-.6687 1.06449 1.06449 0 0 1 1.43457.00049 2.21676 2.21676 0 0 0 3.13428 0 1.06512 1.06512 0 0 1 1.43506-.00049 2.21617 2.21617 0 0 0 3.13525 0 1.06449 1.06449 0 0 1 1.43457.00049 2.03389 2.03389 0 0 0 1.44324.66821c-.06854.5575-.3988 1.00367-.80066 1.00367h-11.85937c-.40186.00001-.73212-.44616-.80066-1.00366zm-1.4679 2.00367h16.39649a2.30581 2.30581 0 0 1 -2.19818 2.14611c-.117.03241-11.77495-.00206-11.89577.01016a2.31052 2.31052 0 0 1 -2.30254-2.15626zm22.98242 2.1504h-6.5213a3.29284 3.29284 0 0 0 .94025-2.30176c.03021-.3863-.01612-.83427-.5-.84863h-1.24408a2.50771 2.50771 0 0 0 .29877-1.19281 1.61535 1.61535 0 0 0 .00382-3.01782l.00008-1.24933a3.20156 3.20156 0 1 0 .97077-3.90158 6.333 6.333 0 0 0 -3.07337-3.27726l-.0534-.96618h10.1123zm2.0127-17.75537c-.54593-.00765-11.725-.00759-12.271 0v-1.03565h12.271z"/></svg>