<svg width="30" height="18" viewBox="0 0 30 18" fill="none" xmlns="http://www.w3.org/2000/svg">
<g clip-path="url(#clip0_1_1665)">
<path d="M20.4667 18H9.54902C8.49501 18 7.64551 17.4843 7.64551 16.8581C7.64551 16.2319 8.49501 15.7162 9.54902 15.7162H20.4667C21.5207 15.7162 22.3702 16.2319 22.3702 16.8581C22.3702 17.4843 21.5207 18 20.4667 18Z" fill="white"/>
<path d="M23.7388 10.1419H6.2768C5.22279 10.1419 4.37329 9.62623 4.37329 9.00004C4.37329 8.36157 5.22279 7.85815 6.2768 7.85815H23.7388C24.7928 7.85815 25.6423 8.37384 25.6423 9.00004C25.6423 9.63851 24.7928 10.1419 23.7388 10.1419Z" fill="white"/>
<path d="M28.0965 2.29604H1.90351C0.849502 2.29604 0 1.78035 0 1.14188C0 0.515689 0.849502 0 1.90351 0H28.0965C29.1505 0 30 0.515689 30 1.14188C30 1.78035 29.1505 2.29604 28.0965 2.29604Z" fill="white"/>
</g>
<defs>
<clipPath id="clip0_1_1665">
<rect width="30" height="18" fill="white"/>
</clipPath>
</defs>
</svg>
