<svg height="512" viewBox="0 0 64 64" width="512" xmlns="http://www.w3.org/2000/svg"><g id="Delivery-Food-Shop-Smartphone-Application"><path d="m25 6h6v2h-6z"/><path d="m27 48h2v2h-2z"/><path d="m57 6h-12.7a6.983 6.983 0 0 0 -6.3-4h-20a7.008 7.008 0 0 0 -7 7v21.3a3.069 3.069 0 0 0 -1.45 1.44l-4.54 9.85a11.085 11.085 0 0 0 -1.01 4.6v15.81h2v-15.81a9.038 9.038 0 0 1 .83-3.76l4.17-9.05v13.62a6.966 6.966 0 0 0 .89 3.41 1 1 0 0 0 1.78.09l4.5-7.79a2 2 0 0 1 1.21-.94 2.06 2.06 0 0 1 1.52.2 2 2 0 0 1 .73 2.74l-4.5 7.79a1.031 1.031 0 0 0 .01 1.02l2.14 3.56a4.987 4.987 0 0 1 .72 2.57v2.34h2v-2.34a7.026 7.026 0 0 0 -1-3.6l-1.23-2.05h5.77a4.033 4.033 0 0 0 .4 3.04l3.15 5.46 1.73-1-3.15-5.46a2 2 0 1 1 3.46-2l2 3.46a1 1 0 0 0 1.87-.5v-19a2 2 0 0 1 4 0v16a1 1 0 0 0 2 0v-4a2 2 0 0 1 4 0v4a1 1 0 0 0 2 0v-3a2 2 0 0 1 4 0v3a1 1 0 0 0 2 0v-2a2 2 0 0 1 4 0v10h2v-10a4 4 0 0 0 -4-4 3.94 3.94 0 0 0 -2.57.94 4.012 4.012 0 0 0 -3.43-1.94 3.94 3.94 0 0 0 -2.57.94 4 4 0 0 0 -1.43-1.4v-26.54h2v3a.987.987 0 0 0 .62.92.838.838 0 0 0 .38.08 1.007 1.007 0 0 0 .71-.29l3.7-3.71h4.59a3.009 3.009 0 0 0 3-3v-8a3.009 3.009 0 0 0 -3-3zm-14 40a3.989 3.989 0 0 0 -2 .54v-8.54a4 4 0 0 0 -8 0v14h-1.02a4.008 4.008 0 0 0 -4.58-.43 4.247 4.247 0 0 0 -.59.43h-7.08l3.64-6.29a4 4 0 0 0 -4.5-5.87 3.948 3.948 0 0 0 -2.43 1.87l-3.4 5.89a4.032 4.032 0 0 1 -.04-.6v-38a5 5 0 0 1 5-5h20a4.993 4.993 0 0 1 4.1 2.15 3 3 0 0 0 -2.1 2.85v8a3.009 3.009 0 0 0 3 3zm15-29a1 1 0 0 1 -1 1h-5a1.033 1.033 0 0 0 -.71.29l-2.29 2.3v-1.59a1 1 0 0 0 -1-1h-5a1 1 0 0 1 -1-1v-8a1 1 0 0 1 1-1h14a1 1 0 0 1 1 1z"/><path d="m37 23a1 1 0 0 0 1-1v-2a5 5 0 0 0 -5-5h-10a5 5 0 0 0 -5 5v2a1 1 0 0 0 1 1h1v2h-1a1 1 0 0 0 -1 1v3a2.006 2.006 0 0 0 2 2h16a2.006 2.006 0 0 0 2-2v-3a1 1 0 0 0 -1-1h-1v-2zm-1 6h-16v-2h16zm-14-4v-2h12v2zm-2-4v-1a3.009 3.009 0 0 1 3-3v2h2v-2h2v2h2v-2h2v2h2v-2a3.009 3.009 0 0 1 3 3v1z"/><path d="m44 10h12v2h-12z"/><path d="m44 14h12v2h-12z"/></g></svg>