<svg width="13" height="19" viewBox="0 0 13 19" fill="none" xmlns="http://www.w3.org/2000/svg">
<path d="M8.04589 7.99899C10.1215 7.12053 11.1071 4.68918 10.2473 2.56843C9.38758 0.447683 7.00805 -0.559391 4.93248 0.319071C2.85692 1.19753 1.87131 3.62888 2.73105 5.74963C3.5908 7.87038 5.97033 8.87745 8.04589 7.99899Z" fill="#2F313E"/>
<path d="M13 11.7564V17.4394C11.0575 18.4403 8.8493 19.0001 6.5249 19.0001C4.18391 19.0001 1.97573 18.4403 0.0166016 17.4225V11.7564C0.0166016 10.2126 1.24521 8.95728 2.75606 8.95728H3.37037C4.26692 9.56799 5.3461 9.92424 6.5083 9.92424C7.6705 9.92424 8.74968 9.56799 9.64623 8.95728H10.2771C11.7714 8.95728 13 10.2126 13 11.7564Z" fill="#2F313E"/>
</svg>
