<svg width="18" height="23" viewBox="0 0 18 23" fill="none" xmlns="http://www.w3.org/2000/svg">
<g clip-path="url(#clip0_1_1676)">
<path d="M2.64087 2.57156C0.938623 4.23436 0 6.44313 0 8.79595C0 10.8091 1.47245 13.7648 4.37671 17.583C6.51203 20.3893 8.67564 22.6603 8.69862 22.6817L9.00088 22.9982L9.30315 22.6817C9.32436 22.6585 11.4897 20.3893 13.6251 17.583C16.5293 13.7648 18.0018 10.8073 18.0018 8.79417C18.0018 6.44313 17.0631 4.23258 15.3609 2.56978C13.6604 0.914096 11.4014 0 9.00088 0C6.59864 0 4.33959 0.914096 2.64087 2.57156ZM13.7541 8.97734C13.7541 11.6183 11.6258 13.7595 9.00088 13.7595C6.37592 13.7595 4.2459 11.6183 4.2459 8.97734C4.2459 6.33643 6.37415 4.19524 8.99912 4.19524C11.6241 4.19524 13.7541 6.33465 13.7541 8.97734Z" fill="#1A171B"/>
</g>
<defs>
<clipPath id="clip0_1_1676">
<rect width="18" height="23" fill="white"/>
</clipPath>
</defs>
</svg>
