<svg id="_x33_0" enable-background="new 0 0 64 64" height="512" viewBox="0 0 64 64" width="512" xmlns="http://www.w3.org/2000/svg"><g><path d="m63.22 63-2.184-10.918c1.3-3.35 1.964-6.869 1.964-10.467v-7.958c0-3.769-1.425-7.312-4-10.041v-14.616c0-1.103-.897-2-2-2h-22c-1.103 0-2 .897-2 2v23.561c-1.206-1.02-2.553-1.836-4-2.427v-1.134c0-2.206-1.794-4-4-4h-8c-2.206 0-4 1.794-4 4v1.108c-5.011 2.035-8.685 6.694-9.256 12.399l-.649 6.493h-.095c-1.103 0-2 .897-2 2 0 3.309 2.691 6 6 6h28c3.309 0 6-2.691 6-6 0-1.103-.897-2-2-2h-.095l-.649-6.492c-.121-1.205-.391-2.378-.79-3.508h6.908c-.249 1.129-.374 2.282-.374 3.444 0 2.48.586 4.965 1.696 7.184l1.256 2.513-2.172 10.859zm-16-2 1.6-8h10.36l1.6 8zm7.78-52h2v28h-2zm-14 0v28h-2v-28zm-6 0h2v28h-2zm-20 20c0-1.103.897-2 2-2h8c1.103 0 2 .897 2 2v.472c-1.189-.3-2.417-.472-3.67-.472h-4.66c-1.267 0-2.493.17-3.67.464zm20 26h-28c-2.206 0-4-1.794-4-4h36c0 2.206-1.794 4-4 4zm1.266-12.293.629 6.293h-31.79l.629-6.293c.668-6.674 6.229-11.707 12.936-11.707h4.66c3.704 0 7.202 1.582 9.67 4.331v1.669c0 1.103.897 2 2 2h.32c.492 1.18.817 2.422.946 3.707zm8.677-5.707h-1.943v-28h10v21.38c-.81-1.996-2.739-3.38-5-3.38-1.103 0-2 .897-2 2v1.213c0 2.281-.347 4.537-1.057 6.787zm1.808.909c.829-2.486 1.249-5.076 1.249-7.696v-1.213c1.764 0 3.227 1.324 3.403 3.08l.422 4.219c.154 1.54 1.438 2.701 2.985 2.701h2.19c1.103 0 2-.897 2-2v-10.163c1.297 2.018 2 4.364 2 6.82v7.958c0 3.221-.575 6.373-1.694 9.385h-10.688l-1.133-2.267c-.972-1.942-1.485-4.117-1.485-6.289 0-1.513.243-3.009.751-4.535z"/><path d="m51 11h-6v6h6zm-2 4h-2v-2h2z"/><path d="m47 19h2v6h-2z"/><path d="m22.472 9c1.324 0 2.514-.735 3.105-1.919l.317-.634-1.789-.895-.317.634c-.25.502-.755.814-1.316.814-.811 0-1.472-.66-1.472-1.472 0-1.394 1.134-2.528 2.528-2.528h.472c1.654 0 3 1.346 3 3v.342c0 1.978-.945 3.867-2.527 5.054-.922.691-1.473 1.792-1.473 2.946 0 1.404.78 2.667 2.036 3.294l.91.455c.65.325 1.054.978 1.054 1.705 0 .51-.198.988-.557 1.348l-.149.148 1.412 1.416.15-.149c.738-.738 1.144-1.719 1.144-2.763 0-1.488-.827-2.826-2.159-3.494l-.911-.455c-.574-.287-.93-.864-.93-1.505 0-.527.251-1.03.673-1.347 2.083-1.562 3.327-4.05 3.327-6.653v-.342c0-2.757-2.243-5-5-5h-.472c-2.497 0-4.528 2.031-4.528 4.528 0 1.914 1.558 3.472 3.472 3.472z"/><path d="m8.025 12.131 1.739.869c.762.381 1.236 1.147 1.236 2s-.474 1.619-1.236 2l-.772.387c-1.229.613-1.992 1.847-1.992 3.22 0 1.207.6 2.328 1.604 2.997l1.842 1.228 1.109-1.664-1.842-1.228c-.446-.297-.713-.795-.713-1.333 0-.61.339-1.159.885-1.432l.772-.387c1.446-.721 2.343-2.173 2.343-3.788s-.897-3.067-2.342-3.789l-1.739-.869c-1.184-.592-1.919-1.782-1.919-3.186 0-1.037.495-2.028 1.325-2.65 1.295-.971 2.9-1.506 4.519-1.506h1.156v-2h-1.156c-2.049 0-4.08.677-5.719 1.906-1.331.998-2.125 2.587-2.125 4.33 0 2.086 1.159 3.961 3.025 4.895z"/><path d="m13.686 6.275.761-.381-.895-1.789-.76.381c-1.105.552-1.792 1.662-1.792 2.899 0 1.397.891 2.634 2.216 3.074l1.468.489.633-1.896-1.468-.49c-.508-.169-.849-.642-.849-1.177 0-.474.263-.899.686-1.11z"/><path d="m19 13.905c0 .438-.171.852-.481 1.162l-1.812 1.812c-1.085 1.085-1.707 2.587-1.707 4.121h2c0-1.008.409-1.994 1.121-2.707l1.812-1.812c.688-.688 1.067-1.603 1.067-2.576 0-1.57-1.001-2.959-2.491-3.456l-1.193-.397-.632 1.896 1.192.397c.672.225 1.124.852 1.124 1.56z"/><path d="m20.293 22.293 1.414 1.414.293-.293c.645-.646 1-1.503 1-2.414s-.355-1.769-1-2.414l-.293-.293-1.414 1.414.292.293c.268.268.415.622.415 1s-.147.732-.414 1z"/></g></svg>