<?xml version="1.0" encoding="utf-8"?>
<!-- Generator: Adobe Illustrator 26.3.1, SVG Export Plug-In . SVG Version: 6.00 Build 0)  -->
<svg version="1.1" id="Warstwa_1" xmlns="http://www.w3.org/2000/svg" xmlns:xlink="http://www.w3.org/1999/xlink" x="0px" y="0px"
	 viewBox="0 0 595.28 841.89" style="enable-background:new 0 0 595.28 841.89;" xml:space="preserve">
<style type="text/css">
	.st0{fill:none;stroke:#202121;stroke-width:2;stroke-miterlimit:10;stroke-dasharray:5,5;}
</style>
<path id="Path_1522" class="st0" d="M74.03,316.23c24.71,15.7,53.3,24.21,82.57,24.56c13.11,0.14,26.66-1.52,38.05-8.01
	s20.23-18.65,19.83-31.76c-0.61-19.95-23.52-34.2-43.04-30.09s-33.91,22.06-39.01,41.35c-5.1,19.29-2.46,39.75,1.59,59.29
	c9.67,46.65,27.8,92.51,59.27,128.28c30.11,34.02,70.58,57.18,115.17,65.89c44.64,8.46,90.81,1.98,131.4-18.44
	c24.14-12.23,46.18-29.71,60.35-52.76c20.33-33.09,22.3-76.7,5.02-111.48s-53.23-59.56-91.88-63.34"/>
</svg>
