<svg width="135" height="37" viewBox="0 0 135 37" fill="none" xmlns="http://www.w3.org/2000/svg">
<path d="M14.7447 36.9008C17.5954 36.9008 19.2418 35.1897 19.2418 32.1642V7.91086H25.4838C27.8675 7.91086 29.4894 6.57172 29.4894 4.24062C29.4894 1.90952 27.9166 0.570375 25.4838 0.570375H4.03022C1.57277 0.570375 0 1.90952 0 4.24062C0 6.57172 1.62192 7.91086 4.03022 7.91086H10.2476V32.1642C10.2476 35.1897 11.8941 36.9008 14.7447 36.9008Z" fill="#E60023"/>
<path d="M40.1087 37C48.5377 37 53.7967 31.8666 53.7967 22.8398C53.7967 13.9866 48.464 8.70442 40.1087 8.70442C31.8025 8.70442 26.4207 14.0114 26.4207 22.8398C26.4207 31.8418 31.6796 37 40.1087 37ZM40.1087 30.5523C37.1106 30.5523 35.2675 27.7996 35.2675 22.8646C35.2675 18.004 37.1597 15.1521 40.1087 15.1521C43.0822 15.1521 44.9744 18.004 44.9744 22.8646C44.9744 27.7996 43.0822 30.5523 40.1087 30.5523Z" fill="#E60023"/>
<path d="M61.8847 36.9256C64.5388 36.9256 66.2344 35.3385 66.2344 32.3626V21.8231C66.2344 18.748 67.0945 17.4088 70.0926 17.3344C71.7145 17.2601 72.9433 16.8881 73.7542 16.1441C74.5652 15.4249 74.9829 14.3834 74.9829 12.9946C74.9829 11.4075 74.5406 10.2916 73.6805 9.64678C73.1153 9.1756 72.3289 8.95241 71.3459 8.95241C68.6673 8.95241 66.7013 10.8867 66.0378 14.5322H65.8658V13.193C65.8658 10.3412 64.1947 8.77882 61.7619 8.77882C59.2307 8.77882 57.5105 10.3412 57.5105 13.1682V32.3626C57.5105 35.3385 59.2061 36.9256 61.8847 36.9256Z" fill="#E60023"/>
<path d="M86.8309 36.752C90.8857 36.752 93.9084 34.5697 94.9405 31.6434H95.1125V32.4122C95.1125 35.4625 96.931 36.9256 99.4622 36.9256C102.018 36.9256 103.812 35.4625 103.812 32.4122V4.563C103.812 1.48794 102.018 0 99.4622 0C96.9065 0 95.1125 1.48794 95.1125 4.563V14.1106H94.9405C93.7609 11.0851 90.812 8.95241 86.9292 8.95241C80.2449 8.95241 76.1656 14.1602 76.1656 22.7902C76.1656 31.5194 80.1712 36.752 86.8309 36.752ZM90.0993 29.8827C86.9538 29.8827 85.0861 27.2292 85.0861 22.8646C85.0861 18.5248 86.9784 15.8217 90.0993 15.8217C93.2203 15.8217 95.1371 18.5248 95.1371 22.8646C95.1371 27.254 93.2449 29.8827 90.0993 29.8827Z" fill="#E60023"/>
<path d="M121.312 37C129.741 37 135 31.8666 135 22.8398C135 13.9866 129.667 8.70442 121.312 8.70442C113.006 8.70442 107.624 14.0114 107.624 22.8398C107.624 31.8418 112.883 37 121.312 37ZM121.312 30.5523C118.314 30.5523 116.471 27.7996 116.471 22.8646C116.471 18.004 118.363 15.1521 121.312 15.1521C124.286 15.1521 126.178 18.004 126.178 22.8646C126.178 27.7996 124.286 30.5523 121.312 30.5523Z" fill="#E60023"/>
</svg>
