<svg width="29" height="29" viewBox="0 0 29 29" fill="none" xmlns="http://www.w3.org/2000/svg">
<path fill-rule="evenodd" clip-rule="evenodd" d="M0 14.04C0 6.28582 6.28582 0 14.04 0C21.7942 0 28.08 6.28582 28.08 14.04C28.08 21.7942 21.7942 28.08 14.04 28.08C6.28582 28.08 0 21.7942 0 14.04ZM17.0125 10.2201V10.0233C17.0438 10.0545 17.0527 10.0635 17.0553 10.074C17.0563 10.0782 17.0563 10.0827 17.0563 10.0889C17.5164 10.5481 18.0423 10.898 18.6338 11.1603C19.2034 11.4227 19.8169 11.5539 20.4304 11.6633C20.518 11.6851 20.518 11.6414 20.518 11.5758C20.5879 11.2367 20.6533 10.8976 20.7183 10.5606C20.7958 10.1587 20.8728 9.75979 20.9562 9.36735C20.9591 9.35287 20.9619 9.33926 20.9645 9.32645C21.0017 9.14579 21.006 9.12537 20.7809 9.10496C19.8388 8.97376 19.0282 8.55831 18.349 7.90233C17.8013 7.37755 17.385 6.76531 17.0344 6.08746C16.9906 6.02187 16.9468 6 16.8811 6H14.493C14.3834 6 14.3615 6.02187 14.3615 6.1312V15.9927C14.3615 16.1239 14.3615 16.2332 14.3396 16.3644C14.1424 17.6764 12.8279 18.5948 11.5352 18.3105C10.2426 18.0262 9.43192 16.8236 9.67293 15.5335C9.87011 14.5277 10.7465 13.7187 11.7981 13.6312C12.0164 13.6167 12.2444 13.6214 12.4757 13.6263C12.5925 13.6287 12.7102 13.6312 12.8279 13.6312C12.9155 13.6312 12.9374 13.6093 12.9374 13.5219V11.2915C12.9374 11.27 12.9387 11.2472 12.9401 11.2239C12.9442 11.1529 12.9485 11.0786 12.9155 11.0292C12.8684 10.9821 12.7987 10.9913 12.7307 11.0003C12.7039 11.0038 12.6774 11.0073 12.6526 11.0073C12.1049 11.0073 11.5571 11.0073 11.0094 11.1166C8.29264 11.6633 6.518 14.3965 7.13146 17.086C7.7011 19.6443 10.0892 21.328 12.7183 20.9344C14.3834 20.6939 15.6322 19.7974 16.4429 18.3105C16.8592 17.5452 17.0125 16.6924 17.0125 15.8178V10.2201Z" fill="#E60024"/>
</svg>
