<svg width="78" height="69" viewBox="0 0 78 69" fill="none" xmlns="http://www.w3.org/2000/svg">
<circle cx="53.5" cy="24.5" r="24.5" fill="#E60023"/>
<g clip-path="url(#clip0_1_2808)">
<path d="M50.2557 29.3088C49.7347 28.6431 48.6996 27.8483 46.7375 27.8483H41.4264C41.0543 21.8026 36.0477 17 29.9382 17C23.8288 17 18.8154 21.8026 18.45 27.8483H10.8454L9.80346 23.7522C9.72227 23.2971 9.40428 22.9506 9.16071 22.8283L1.79961 18.5624C1.6237 18.4741 1.42749 18.4197 1.23129 18.4197C0.77122 18.4197 0.351745 18.6779 0.135242 19.0854C-0.0136036 19.3775 -0.0474322 19.7104 0.0540536 20.0297C0.155539 20.3421 0.365277 20.6003 0.649437 20.7497L7.50988 24.7236L9.54636 32.7596L14.0253 50.6658C14.0523 50.7677 14.0794 50.8628 14.1132 50.9647C12.4962 51.6576 11.4272 53.2607 11.4272 55.0405C11.4272 57.486 13.4096 59.4695 15.8385 59.4695L44.7958 59.4627C45.4588 59.4627 46.0001 58.9193 46.0001 58.2468C46.0001 57.5743 45.4588 57.0308 44.7958 57.0308H15.8385C14.7424 57.0308 13.8561 56.1342 13.8561 55.0405C13.8561 53.94 14.7492 53.0502 15.8385 53.0502H43.3817C44.7213 53.0502 45.973 52.0312 46.3045 50.6726L50.8578 32.7732C51.1758 31.4418 50.9593 30.2123 50.2557 29.3088ZM29.9382 19.4183C34.9584 19.4183 39.0381 23.5212 39.0381 28.5616C39.0381 33.602 34.9516 37.6981 29.9382 37.6981C24.9181 37.6981 20.8383 33.5952 20.8383 28.5616C20.8383 23.528 24.9181 19.4183 29.9382 19.4183ZM48.4966 32.189L43.9433 50.0884C43.8689 50.3873 43.5576 50.6047 43.3817 50.6047H39.214H16.9481C16.7721 50.5979 16.4609 50.3941 16.3865 50.0816L11.4949 30.2734H18.5583C19.3905 35.83 24.1806 40.1096 29.945 40.1096C35.7094 40.1096 40.4995 35.83 41.3317 30.2734H46.7511C47.2923 30.2734 48.0162 30.3685 48.3613 30.8033C48.5846 31.1157 48.6387 31.6048 48.4966 32.189Z" fill="#2F313E"/>
<path d="M28.3145 32.8412C28.5175 33.0789 28.8084 33.2148 29.1197 33.2148H29.1467C29.4512 33.2148 29.7421 33.0857 29.9383 32.8547L35.6892 26.2996C36.0748 25.858 36.0275 25.1855 35.5877 24.7983C35.3915 24.6285 35.1479 24.5334 34.8908 24.5334C34.5864 24.5334 34.2954 24.6625 34.0992 24.8934L29.1603 30.5112L26.6975 27.4611C26.4946 27.2234 26.2036 27.0807 25.8856 27.0807C25.6353 27.0807 25.3985 27.169 25.2023 27.3321C24.9858 27.5155 24.8505 27.7668 24.8234 28.0521C24.7964 28.3374 24.8843 28.6092 25.0602 28.8265L28.3145 32.8412Z" fill="#2F313E"/>
<path d="M19.4379 60.5224C17.1105 60.5224 15.2161 62.4244 15.2161 64.7612C15.2161 67.098 17.1105 69 19.4379 69C21.7653 69 23.6597 67.098 23.6597 64.7612C23.6597 62.4244 21.7653 60.5224 19.4379 60.5224ZM19.4379 67.1591C18.1186 67.1591 17.0496 66.0858 17.0496 64.7612C17.0496 63.4366 18.1186 62.3633 19.4379 62.3633C20.7572 62.3633 21.8262 63.4366 21.8262 64.7612C21.8262 66.0858 20.7504 67.1591 19.4379 67.1591Z" fill="#2F313E"/>
<path d="M38.2938 60.5224C35.9664 60.5224 34.072 62.4244 34.072 64.7612C34.072 67.098 35.9664 69 38.2938 69C40.6212 69 42.5156 67.098 42.5156 64.7612C42.5156 62.4244 40.6145 60.5224 38.2938 60.5224ZM38.2938 67.1591C36.9745 67.1591 35.9055 66.0858 35.9055 64.7612C35.9055 63.4366 36.9745 62.3633 38.2938 62.3633C39.6131 62.3633 40.6821 63.4366 40.6821 64.7612C40.6821 66.0858 39.6064 67.1591 38.2938 67.1591Z" fill="#2F313E"/>
<path d="M32.1236 63.9257H25.5946C25.1346 63.9257 24.7625 64.2993 24.7625 64.7612C24.7625 65.2231 25.1346 65.5967 25.5946 65.5967H32.1236C32.5836 65.5967 32.9557 65.2231 32.9557 64.7612C32.9557 64.2993 32.5836 63.9257 32.1236 63.9257Z" fill="#2F313E"/>
</g>
<defs>
<clipPath id="clip0_1_2808">
<rect width="51" height="52" fill="white" transform="translate(0 17)"/>
</clipPath>
</defs>
</svg>
