<svg width="29" height="29" viewBox="0 0 29 29" fill="none" xmlns="http://www.w3.org/2000/svg">
<path fill-rule="evenodd" clip-rule="evenodd" d="M14.04 0C6.28582 0 0 6.28582 0 14.04C0 21.7942 6.28582 28.08 14.04 28.08C21.7942 28.08 28.08 21.7942 28.08 14.04C28.08 6.28582 21.7942 0 14.04 0ZM10.953 6.59704C11.7521 6.56078 12.0071 6.552 14.0406 6.552H14.0382C16.0729 6.552 16.3268 6.56078 17.1259 6.59704C17.9226 6.6339 18.4673 6.76026 18.9446 6.94512C19.4444 7.13278 19.897 7.42748 20.2708 7.80858C20.6518 8.18279 20.9467 8.63556 21.1349 9.13536C21.3192 9.61096 21.4449 10.1556 21.483 10.9524C21.5186 11.7515 21.528 12.0065 21.528 14.04C21.528 16.0735 21.5186 16.3285 21.483 17.127C21.4455 17.9238 21.3192 18.4685 21.1349 18.9446C20.9466 19.4442 20.6517 19.8968 20.2708 20.2708C19.8972 20.652 19.4448 20.9469 18.9452 21.1349C18.4685 21.3203 17.9238 21.4461 17.127 21.483C16.3279 21.5192 16.074 21.528 14.04 21.528C12.0065 21.528 11.7515 21.5192 10.9524 21.483C10.1556 21.4461 9.61096 21.3203 9.13478 21.1349C8.63508 20.9468 8.18247 20.652 7.80858 20.2708C7.42763 19.8967 7.13295 19.4439 6.94512 18.9441C6.76026 18.4679 6.6339 17.9238 6.59704 17.127C6.56136 16.3279 6.552 16.074 6.552 14.04C6.552 12.0065 6.56136 11.7509 6.59704 10.9524C6.63273 10.1556 6.75909 9.61096 6.94512 9.13478C7.13342 8.63521 7.42827 8.18266 7.80917 7.80858C8.18328 7.42759 8.63609 7.1329 9.13595 6.94512C9.61155 6.76026 10.1562 6.6339 10.953 6.59704Z" fill="#E60024"/>
<path fill-rule="evenodd" clip-rule="evenodd" d="M13.3689 7.90154H14.0405C16.04 7.90154 16.277 7.90856 17.0667 7.94424C17.7968 7.97759 18.1928 8.09985 18.4567 8.20223C18.8065 8.33795 19.0551 8.50058 19.3172 8.76207C19.5793 9.02474 19.7413 9.27395 19.8776 9.62378C19.98 9.88703 20.1023 10.2831 20.135 11.0132C20.1713 11.8029 20.1789 12.0398 20.1789 14.0382C20.1789 16.0365 20.1713 16.2741 20.1356 17.0632C20.1023 17.7933 19.98 18.1893 19.8776 18.4532C19.7575 18.7781 19.566 19.072 19.3172 19.3131C19.0761 19.5619 18.7822 19.7534 18.4573 19.8736C18.1934 19.9765 17.7962 20.0982 17.0667 20.131C16.277 20.1672 16.04 20.1748 14.0405 20.1748C12.041 20.1748 11.804 20.1672 11.0149 20.1315C10.2848 20.0976 9.88876 19.9759 9.62434 19.8736C9.29901 19.7535 9.00476 19.562 8.76322 19.3131C8.51451 19.0717 8.32301 18.7777 8.20279 18.4526C8.10041 18.1893 7.97815 17.7927 7.94539 17.0626C7.90912 16.2729 7.9021 16.036 7.9021 14.0364C7.9021 12.0369 7.90912 11.8011 7.9448 11.012C7.97873 10.2813 8.10041 9.88527 8.20279 9.62144C8.33851 9.27161 8.50114 9.0224 8.76322 8.76032C9.00485 8.51159 9.29908 8.3201 9.62434 8.19989C9.88817 8.09693 10.2848 7.97525 11.0149 7.9419C11.7052 7.91031 11.9731 7.90095 13.3689 7.89978V7.90154ZM18.0372 9.14466C17.5408 9.14466 17.1384 9.54709 17.1384 10.0435C17.1384 10.5399 17.5408 10.9424 18.0372 10.9424C18.5336 10.9424 18.9361 10.5399 18.9361 10.0435C18.9361 9.54709 18.5336 9.14466 18.0372 9.14466ZM10.1959 14.0399C10.1788 12.6548 10.908 11.3675 12.1048 10.6699C13.3016 9.97233 14.7811 9.97233 15.978 10.6699C17.1748 11.3675 17.904 12.6548 17.8869 14.0399C17.8609 16.1453 16.1469 17.8383 14.0414 17.8383C11.9359 17.8383 10.2219 16.1453 10.1959 14.0399Z" fill="#E60024"/>
<path d="M14.0406 11.5438C15.4192 11.5438 16.5368 12.6614 16.5368 14.04C16.5368 15.4186 15.4192 16.5362 14.0406 16.5362C12.662 16.5362 11.5444 15.4186 11.5444 14.04C11.5444 12.6614 12.662 11.5438 14.0406 11.5438V11.5438Z" fill="#E60024"/>
</svg>
