<svg width="13" height="16" viewBox="0 0 13 16" fill="none" xmlns="http://www.w3.org/2000/svg">
<g clip-path="url(#clip0_1_1703)">
<path d="M1.9073 1.78891C0.677894 2.94564 0 4.48218 0 6.11892C0 7.51937 1.06344 9.5755 3.16095 12.2317C4.70313 14.1839 6.26574 15.7637 6.28233 15.7785L6.50064 15.9988L6.71894 15.7785C6.73426 15.7625 8.29814 14.1839 9.84032 12.2317C11.9378 9.5755 13.0013 7.51813 13.0013 6.11768C13.0013 4.48218 12.3234 2.94441 11.094 1.78767C9.86586 0.635893 8.23431 0 6.50064 0C4.76569 0 3.13415 0.635893 1.9073 1.78891ZM9.93352 6.24511C9.93352 8.08227 8.39645 9.57179 6.50064 9.57179C4.60483 9.57179 3.06648 8.08227 3.06648 6.24511C3.06648 4.40795 4.60356 2.91843 6.49936 2.91843C8.39517 2.91843 9.93352 4.40671 9.93352 6.24511Z" fill="#1A171B"/>
</g>
<defs>
<clipPath id="clip0_1_1703">
<rect width="13" height="16" fill="white"/>
</clipPath>
</defs>
</svg>
