<svg width="23" height="22" viewBox="0 0 23 22" fill="none" xmlns="http://www.w3.org/2000/svg">
<g clip-path="url(#clip0_1_1686)">
<path fill-rule="evenodd" clip-rule="evenodd" d="M22.4918 19.1162L17.7522 14.581C18.892 13.0058 19.4667 11.2451 19.4667 9.30348C19.4667 8.0424 19.2102 6.83842 18.702 5.68678C18.1939 4.53515 17.5005 3.54532 16.6267 2.71252C15.7576 1.87973 14.7223 1.21826 13.516 0.728099C12.3097 0.2427 11.0465 0 9.73095 0C8.41545 0 7.15218 0.2427 5.95065 0.732857C4.74912 1.22302 3.70906 1.88449 2.83998 2.71728C1.97089 3.55008 1.27751 4.54467 0.764609 5.69154C0.256453 6.84318 0 8.04716 0 9.30824C0 10.5693 0.256453 11.7733 0.764609 12.9249C1.27751 14.0766 1.97089 15.0664 2.83998 15.8992C3.70906 16.732 4.74912 17.3935 5.95065 17.8836C7.15218 18.3738 8.41545 18.6165 9.73095 18.6165C11.7588 18.6165 13.5967 18.0692 15.2447 16.9747L19.9843 21.4956C20.3167 21.8287 20.7299 22 21.2286 22C21.7082 22 22.1214 21.8334 22.4728 21.4956C22.8243 21.1624 23 20.7627 23 20.3059C23 19.8395 22.829 19.4445 22.4918 19.1162ZM14.1049 13.4912C12.8939 14.6476 11.4359 15.2282 9.73095 15.2282C8.02602 15.2282 6.56804 14.6476 5.35701 13.4912C4.14598 12.3348 3.5381 10.9358 3.5381 9.30824C3.5381 7.67597 4.14598 6.28164 5.35701 5.12524C6.56804 3.96885 8.03077 3.38828 9.73095 3.38828C11.4359 3.38828 12.8939 3.96885 14.1049 5.12524C15.3159 6.28164 15.9238 7.68073 15.9238 9.30824C15.9238 10.9405 15.3159 12.3348 14.1049 13.4912Z" fill="#1A171B"/>
</g>
<defs>
<clipPath id="clip0_1_1686">
<rect width="23" height="22" fill="white"/>
</clipPath>
</defs>
</svg>
