<svg width="27" height="30" viewBox="0 0 27 30" fill="none" xmlns="http://www.w3.org/2000/svg">
<path d="M23.7997 13.3744C24.265 14.6267 24.5252 15.98 24.5252 17.3956C24.5252 23.8044 19.2571 29 12.7587 29C6.26814 29 1 23.8044 1 17.3956C1 11.0022 6.24448 5.82222 12.7192 5.79889M1.00789 17.3956H24.5252M15.4322 11.7567C14.5804 11.8967 13.6893 11.9744 12.7587 11.9744C9.29653 11.9744 6.24448 10.9244 4.45426 9.33M21.0789 25.4767C19.2808 23.8744 16.2287 22.8244 12.7587 22.8244C9.29653 22.8244 6.24448 23.8744 4.45426 25.4689M12.7035 28.8678C9.95899 26.3944 8.153 22.1944 8.153 17.4189C8.153 12.6589 9.9511 8.45889 12.6877 5.98556M13.0032 28.8678C15.7476 26.3944 17.5536 22.1944 17.5536 17.4189C17.5536 16.1122 17.4196 14.8522 17.1672 13.6544M20.4874 1C22.0095 1 23.3896 1.60667 24.3912 2.59444C25.3849 3.57444 26 4.93556 26 6.43667C26 7.30778 25.7871 8.14 25.4164 8.87111C24.7066 10.2711 21.1183 12.7056 20.4795 15.35C19.4543 12.7833 16.2524 10.2711 15.5426 8.87111C15.1719 8.14 14.959 7.31556 14.959 6.43667C14.9669 3.43444 17.4353 1 20.4874 1ZM20.4874 3.68333C21.9937 3.68333 23.224 4.88889 23.224 6.38222C23.224 7.86778 22.0016 9.08111 20.4874 9.08111C18.9811 9.08111 17.7508 7.87556 17.7508 6.38222C17.7508 4.88889 18.9732 3.68333 20.4874 3.68333Z" stroke="white" stroke-width="1.5" stroke-miterlimit="22.9256" stroke-linecap="round" stroke-linejoin="round"/>
</svg>
