<svg width="73" height="64" viewBox="0 0 73 64" fill="none" xmlns="http://www.w3.org/2000/svg">
<circle cx="48.5" cy="24.5" r="24.5" fill="#E60023"/>
<g clip-path="url(#clip0_1_2842)">
<path fill-rule="evenodd" clip-rule="evenodd" d="M24.4428 59.9197C24.6791 60.1432 24.9083 60.3666 25.1518 60.5541C25.3953 60.7559 25.6531 60.9434 25.9181 61.102C26.1831 61.2678 26.4624 61.4192 26.7417 61.5561C27.0353 61.6859 27.3218 61.8012 27.6226 61.9094C27.9448 62.0175 28.2743 62.0968 28.6109 62.1689C28.9331 62.2266 29.2769 62.277 29.6135 62.2843C29.9501 62.3059 30.301 62.3059 30.6376 62.2843C30.9742 62.2626 31.3108 62.2122 31.6402 62.1401C32.4567 61.9743 33.2086 61.6354 33.8747 61.1813C34.6052 60.6766 35.2569 60.0206 35.7797 59.2997C36.2452 58.6653 36.6391 57.9516 36.9399 57.2019C37.2335 56.4665 37.4412 55.6807 37.5343 54.9094L37.5486 54.8733C37.5701 54.6643 37.6274 54.1452 37.6274 53.9506V45.2492C37.6274 45.0834 37.5916 44.932 37.5343 44.7951C37.477 44.6509 37.3839 44.5283 37.2765 44.4058C37.1619 44.2976 37.033 44.2039 36.8897 44.1462C36.7465 44.0886 36.5961 44.0525 36.4385 44.0525H36.4242H36.4099H36.3956C36.2523 44.0669 36.1163 44.0886 36.0017 44.1462C35.8728 44.1895 35.7439 44.276 35.6436 44.3697L35.6293 44.3914L35.6078 44.4058L35.5863 44.4274L35.572 44.4418C35.4789 44.55 35.4073 44.6509 35.3643 44.7806C35.307 44.896 35.2712 45.0258 35.2712 45.1555H35.2569V45.1699V45.1844V45.2348V45.2492V45.2637V46.9722V47.5201C35.2569 47.7508 35.1638 47.967 35.0134 48.1184C34.863 48.2698 34.6553 48.3635 34.4333 48.3635C34.2041 48.3635 33.9893 48.2698 33.8389 48.1184C33.7314 48.0103 33.667 47.8878 33.6169 47.7292H33.5954V47.5201V45.2637C33.5954 45.0978 33.5739 44.9465 33.5166 44.8095C33.445 44.6653 33.3662 44.5427 33.2588 44.4202H33.2445C33.137 44.3121 33.0081 44.2183 32.8577 44.1607C32.7145 44.103 32.5641 44.0669 32.4137 44.0669H32.3994H32.3851H32.3707H32.3564C32.2203 44.0814 32.0914 44.103 31.9625 44.1607C31.8336 44.2039 31.719 44.2904 31.6116 44.3841L31.5901 44.3986L31.5758 44.4202L31.5543 44.4418L31.54 44.4562C31.4469 44.5644 31.3753 44.6653 31.318 44.7951C31.275 44.9104 31.2392 45.0402 31.2249 45.1699V45.1844V45.1988V45.2492V45.2637V45.2781V46.9866V47.5345C31.2249 47.7652 31.1318 47.9815 30.9814 48.1329C30.831 48.2842 30.6233 48.378 30.387 48.378C30.1649 48.378 29.9573 48.2842 29.8069 48.1329C29.6994 48.0247 29.6207 47.9022 29.5849 47.7436H29.5634V47.5345V46.9866V45.2781C29.5634 45.1123 29.5276 44.9609 29.4703 44.8239C29.413 44.6797 29.3342 44.5572 29.2124 44.4346C29.0979 44.3265 28.969 44.2328 28.8257 44.1751C28.6896 44.1174 28.5321 44.0814 28.3817 44.0814H28.3602H28.3459H28.3316C28.1955 44.0958 28.0523 44.1174 27.9377 44.1751C27.8088 44.2183 27.6799 44.3048 27.5796 44.3986L27.5653 44.413L27.5438 44.4346L27.508 44.4707C27.4149 44.5788 27.3433 44.6797 27.3003 44.8095C27.243 44.9248 27.2072 45.0546 27.2072 45.1844L27.1929 45.1988V45.2132V45.2348V46.2441V47.5706C27.1929 47.8012 27.0998 48.0031 26.9494 48.1545C26.799 48.3059 26.5913 48.3996 26.3693 48.3996C26.1329 48.3996 25.9252 48.3059 25.7749 48.1545C25.6818 48.0463 25.603 47.9238 25.5672 47.7796H25.5314V47.5706V45.2853V45.206V36.9083C25.5314 36.7425 25.5099 36.5911 25.4526 36.4542C25.3953 36.3172 25.3022 36.1874 25.1948 36.0649C25.0802 35.9568 24.9513 35.863 24.808 35.8054C24.672 35.7477 24.5144 35.7116 24.3568 35.7116C24.2065 35.7116 24.0561 35.7477 23.9057 35.8054C23.7696 35.863 23.6407 35.9568 23.5333 36.0649C23.4187 36.1802 23.3327 36.31 23.2754 36.4542C23.2181 36.5911 23.1823 36.7497 23.1823 36.9083V49.8702C23.1823 50.0577 23.125 50.2235 23.0319 50.3532C22.9245 50.4974 22.7884 50.5911 22.6381 50.6344C22.4877 50.6777 22.3229 50.6921 22.1582 50.6488C21.9863 50.6056 21.8216 50.5118 21.6784 50.346L21.6426 50.31C21.4349 50.0793 21.306 49.9351 21.1628 49.7982C20.8405 49.4449 20.5254 49.0989 20.1959 48.7673C19.6015 48.1689 18.7851 47.4768 17.9615 47.0227C17.3599 46.6838 16.7369 46.482 16.2069 46.5541C15.8846 46.5901 15.6626 46.7199 15.5194 46.8785C15.3547 47.0875 15.283 47.3615 15.2974 47.6426C15.3188 48.3203 15.5982 48.6159 16.0207 49.0268L16.1353 49.1421C18.3124 51.3553 20.1458 54.001 21.9362 56.5891L22.5163 57.4325L22.6882 57.6921C23.2325 58.3986 23.8842 59.3357 24.4428 59.9197ZM30.4228 43.2235C30.5159 43.1442 30.5946 43.0577 30.6877 42.9856C30.7808 42.9135 30.8739 42.8486 30.9814 42.7837C31.1819 42.6684 31.3967 42.5603 31.6331 42.5026C31.8551 42.4305 32.0843 42.3944 32.3278 42.3872H32.3636H32.3994H32.4352C32.8076 42.3872 33.18 42.4593 33.5166 42.5963C33.8675 42.7333 34.1826 42.9495 34.4333 43.2163H34.4476C34.5264 43.137 34.6195 43.0505 34.7126 42.9784C34.8057 42.9063 34.8988 42.8414 35.0062 42.7765C35.2067 42.6612 35.4216 42.553 35.6436 42.4954C35.8656 42.4233 36.0948 42.3872 36.3383 42.38H36.3526H36.3741H36.3884H36.4099H36.4242H36.4457C36.8324 42.38 37.1905 42.4521 37.5414 42.5891C37.878 42.7261 38.1932 42.9423 38.4581 43.2091C38.7231 43.4758 38.938 43.793 39.074 44.1462C39.2101 44.4851 39.296 44.8455 39.296 45.2348V53.9217C39.296 54.9166 39.1242 55.9475 38.8162 56.9279C38.5011 57.9588 38.0356 58.932 37.4698 59.8115C36.8181 60.828 35.9945 61.7292 35.0134 62.4356C34.1182 63.0917 33.1084 63.5747 31.9768 63.7909C31.1604 63.9567 30.3368 64.0144 29.5204 63.964C28.704 63.9207 27.8947 63.7621 27.0998 63.5098C26.3693 63.2647 25.6674 62.9331 25.0157 62.5294C24.3783 62.1329 23.7696 61.6426 23.2396 61.0875C22.5664 60.3955 21.9004 59.4223 21.3203 58.5788C21.1914 58.3914 21.0768 58.2183 20.9837 58.0886L20.6471 57.6056C18.871 55.0319 17.0878 52.4655 15.0897 50.4037C15.0181 50.3316 14.9464 50.2739 14.8891 50.2019C14.2876 49.5963 13.9152 49.2214 13.729 48.1905C13.7146 48.1184 13.7075 48.0536 13.6932 47.9815C13.6144 47.2894 13.729 46.5973 14.0799 46.035C14.438 45.4583 15.0109 45.0258 15.8345 44.8744C15.9133 44.8599 15.9849 44.8527 16.0422 44.8383C16.9589 44.7302 17.9257 45.0402 18.8424 45.5376C19.8522 46.0999 20.819 46.9073 21.5495 47.6715V39.8136V36.9083C21.5495 36.5191 21.6211 36.1586 21.7715 35.8198C21.9076 35.4665 22.1224 35.1493 22.3874 34.8826C22.9317 34.3347 23.6693 34.0536 24.3855 34.0536C25.116 34.0536 25.8393 34.3347 26.3979 34.8826C26.6629 35.1493 26.8777 35.4665 27.0138 35.8054C27.1499 36.1586 27.2215 36.5191 27.2215 36.9083V39.4459V40.448V40.4624V42.654C27.3504 42.5963 27.465 42.5458 27.5939 42.5098C27.8159 42.4377 28.0594 42.4017 28.2886 42.3944H28.3029H28.3244H28.3387H28.3602H28.3745H28.396H28.4103C28.7827 42.3944 29.1552 42.4665 29.4917 42.6035C29.8427 42.7405 30.1578 42.9495 30.4228 43.2235Z" fill="#2F313E" stroke="#2F313E" stroke-width="0.5"/>
<path d="M29.0046 22.31L28.9902 22.2956L29.0046 22.31Z" fill="#2F313E" stroke="#2F313E" stroke-width="0.5"/>
<path d="M29.0407 22.3316H29.0261H29.0407L29.0627 22.3537L29.0407 22.3316Z" fill="#2F313E"/>
<path d="M29.0407 22.3316H29.0261H29.0407ZM29.0407 22.3316L29.0627 22.3537L29.0407 22.3316Z" stroke="#2F313E" stroke-width="0.5"/>
<path d="M19.6524 22.31C19.6363 22.31 19.6524 22.31 19.6524 22.31V22.31Z" fill="#2F313E" stroke="#2F313E" stroke-width="0.5"/>
<path d="M19.6516 22.31V22.2956V22.31Z" fill="#2F313E" stroke="#2F313E" stroke-width="0.5"/>
<path d="M19.6162 22.3316L19.5942 22.3537L19.6162 22.3316Z" fill="#2F313E" stroke="#2F313E" stroke-width="0.5"/>
<path d="M26.448 20.8105L26.4337 20.7889L26.0398 19.931L25.9969 19.8373C25.8536 19.5417 25.7319 19.2894 25.6388 19.0731L25.4884 18.7487C25.4669 18.691 25.4311 18.6189 25.3022 18.3522L25.2807 18.2945C25.2592 18.2225 25.2091 18.1432 25.1661 18.035C25.1231 17.9413 25.2234 18.1504 25.0873 17.8332L25.0085 17.6601C24.9727 17.6025 24.9513 17.5448 24.9298 17.5088L24.9083 17.4655C24.8653 17.3502 24.8295 17.2925 24.8009 17.2564C24.7794 17.1843 24.7436 17.1411 24.7221 17.105C24.7006 17.0474 24.6648 16.9969 24.6433 16.9537C24.6218 16.9176 24.6003 16.8816 24.5717 16.8455C24.5359 16.8023 24.4929 16.7518 24.4643 16.7158C24.4284 16.6941 24.4213 16.6797 24.3926 16.6653C24.3926 16.6653 24.3926 16.6509 24.3783 16.6509C24.3783 16.6509 24.364 16.6509 24.3425 16.6509C24.3067 16.6509 24.2995 16.6509 24.2995 16.6509C24.2995 16.6509 24.2995 16.6653 24.2852 16.6653C24.2709 16.6797 24.2494 16.6869 24.2279 16.7158C24.1921 16.7518 24.1563 16.7951 24.1133 16.8455C24.0919 16.8816 24.0775 16.9176 24.056 16.9537C24.0202 16.9969 23.9844 17.0474 23.9629 17.105C23.9415 17.1411 23.9128 17.1843 23.8842 17.2564C23.8698 17.2925 23.8412 17.3502 23.7911 17.4655L23.7553 17.5088C23.7409 17.5448 23.7123 17.6025 23.6836 17.6601L23.6049 17.8332C23.4688 18.1504 23.5619 17.9413 23.5118 18.035C23.4688 18.1432 23.433 18.2225 23.3972 18.2945L23.3757 18.3522C23.2468 18.6189 23.2253 18.691 23.1895 18.7487L23.0534 19.0731C22.946 19.2822 22.8314 19.5417 22.6953 19.8373L22.6524 19.931L22.2441 20.7889V20.8105H22.2012L22.1296 20.9763C22.0221 21.1854 21.9577 21.3368 21.8861 21.517L21.8717 21.5386L21.6426 22.0288V22.0433L21.528 22.2884C21.5137 22.3316 21.4779 22.4037 21.4206 22.4974C21.3847 22.5767 21.3489 22.6344 21.3275 22.6993C21.2916 22.7425 21.2702 22.8074 21.2558 22.8363L21.22 22.8723C21.1985 22.9228 21.1627 22.9804 21.1269 23.0381V23.0525C21.0911 23.0958 21.0553 23.1607 21.0123 23.2183C20.9694 23.2976 20.9192 23.3481 20.8834 23.3913L20.8619 23.413C20.8261 23.449 20.7832 23.4923 20.733 23.5499C20.6901 23.586 20.6399 23.622 20.5826 23.6581C20.5468 23.6941 20.5039 23.7302 20.4537 23.7518C20.3964 23.7878 20.3463 23.8095 20.289 23.8311L20.2532 23.8527C20.2389 23.8527 20.2389 23.8527 20.1601 23.8888C20.1386 23.8888 20.1028 23.9032 20.0312 23.9248L20.0169 23.9392C19.9453 23.9609 19.8808 23.9753 19.8163 23.9969C19.7662 23.9969 19.7018 24.0185 19.6158 24.033C19.5227 24.0474 19.4654 24.0546 19.4296 24.069C19.315 24.0906 19.2577 24.0906 19.2219 24.105H19.2076L18.9856 24.1411H18.9713L18.7349 24.1627C18.6633 24.1771 18.5631 24.1843 18.4413 24.206L18.1763 24.2276L18.1548 24.242H18.1047C17.9328 24.2564 17.7466 24.2781 17.4673 24.3213H17.4458C17.0734 24.3646 16.8729 24.3934 16.6795 24.415L16.5148 24.4367C15.9562 24.5088 15.505 24.5664 15.0968 24.6097L14.6886 24.6529C14.5525 24.6746 14.4666 24.6746 14.3878 24.689L14.1801 24.7106L13.951 24.7467C13.8579 24.7611 13.7862 24.7683 13.7504 24.7683L13.7289 24.7827C13.6215 24.7971 13.5571 24.7971 13.5069 24.8043C13.4353 24.8187 13.3709 24.826 13.2849 24.8404C13.2634 24.8548 13.2133 24.862 13.1417 24.8764C13.1059 24.8908 13.0701 24.898 13.0486 24.898L13.0343 24.9125C12.977 24.9269 12.9268 24.9485 12.8839 24.9701L12.8409 25.0062L12.8194 25.0206C12.8194 25.0206 12.8194 25.0206 12.8194 25.035C12.8051 25.035 12.8051 25.0494 12.7979 25.0711V25.0927C12.7979 25.1071 12.7979 25.1071 12.7979 25.1071C12.7979 25.1215 12.7979 25.1287 12.7979 25.1432V25.1576C12.7979 25.172 12.8123 25.1936 12.8194 25.2152C12.8337 25.2513 12.8552 25.2873 12.891 25.3306L12.9125 25.3666C12.9268 25.3883 12.9483 25.4099 12.9698 25.4459H12.9841C13.0199 25.5036 13.0558 25.5396 13.0629 25.5541L13.1059 25.5973C13.1847 25.6766 13.2778 25.7703 13.3637 25.8424L13.3995 25.8857C13.4425 25.9217 13.4926 25.965 13.5499 26.0227C13.5857 26.0443 13.643 26.102 13.7146 26.174C13.8077 26.2533 13.8507 26.3038 13.9151 26.3471C14.0226 26.4552 14.0083 26.4408 14.0799 26.5129H14.0942V26.5273H14.1085L14.3162 26.7291C14.6385 27.0319 15.0109 27.3708 15.4334 27.7817C15.505 27.8538 15.5767 27.9114 15.6411 27.9835C15.8273 28.1565 15.992 28.3223 16.0923 28.4161L16.1066 28.4305L16.2928 28.5963C16.4217 28.7116 16.5363 28.8198 16.6652 28.9495C16.7583 29.0288 16.8299 29.0865 16.8729 29.137L17.0591 29.3244C17.1164 29.3749 17.188 29.4398 17.2596 29.5118C17.3169 29.5551 17.3742 29.62 17.4315 29.6777L17.5676 29.8074V29.8218C17.6177 29.8651 17.6464 29.9011 17.6822 29.9372H17.7323L17.9758 30.276L17.9901 30.2904H17.9758C18.0474 30.3841 18.1047 30.4562 18.1477 30.5499C18.162 30.586 18.1835 30.6292 18.205 30.6869C18.2265 30.7302 18.2408 30.7662 18.2479 30.8023C18.2694 30.8744 18.2909 30.9392 18.3052 31.0113C18.3196 31.0546 18.3196 31.105 18.3196 31.1411C18.3339 31.1771 18.341 31.2348 18.341 31.2925C18.341 31.3502 18.341 31.4078 18.341 31.4655C18.341 31.5088 18.341 31.5736 18.3267 31.6385C18.3267 31.6746 18.3124 31.7467 18.3052 31.8404L18.2909 31.9197H18.3052C18.2909 32.0134 18.2838 32.1215 18.2479 32.2585C18.2265 32.4099 18.1907 32.6189 18.1405 32.8424L18.0617 33.2606L18.0474 33.3038C18.0044 33.5417 17.9543 33.7868 17.897 34.0391C17.8254 34.4573 17.7681 34.7312 17.7323 34.9258C17.5891 35.6972 17.5103 36.1298 17.4315 36.5191L17.3957 36.7209V36.7353L17.3814 36.757V36.793L17.3599 36.9011L17.1952 37.7085C17.1737 37.8167 17.1594 37.932 17.1379 38.0402L17.1236 38.1555C17.1236 38.1916 17.1092 38.2276 17.1092 38.2709C17.1092 38.2925 17.1092 38.3429 17.1092 38.4078C17.1092 38.4799 17.1092 38.5232 17.1236 38.5736C17.1236 38.5953 17.1379 38.6241 17.1451 38.6313H17.1307L17.1522 38.6674C17.1522 38.6674 17.1665 38.6818 17.1737 38.689L17.188 38.7034C17.2023 38.7034 17.2095 38.7178 17.2095 38.7178H17.2453C17.2596 38.7178 17.2811 38.7178 17.3026 38.7178C17.3456 38.7034 17.3957 38.6962 17.453 38.6818L17.4888 38.6674C17.5103 38.6529 17.5461 38.6457 17.5676 38.6313C17.6249 38.6097 17.6822 38.5881 17.7323 38.5592V38.5736C17.7681 38.552 17.8254 38.5304 17.897 38.4799C17.94 38.4583 18.0116 38.4222 18.0976 38.3718L18.119 38.3574C18.2336 38.2997 18.3482 38.242 18.47 38.1699H18.4843C18.5917 38.0978 18.7493 38.0041 18.9355 37.9104L18.957 37.8888L19.3652 37.6653C19.6803 37.4923 20.0384 37.276 20.5612 36.9949C20.9479 36.7858 21.4349 36.4902 21.6999 36.3532V38.2276L21.4993 38.3357C21.0553 38.5808 20.4895 38.9197 20.1601 39.0999C19.8593 39.2729 20.024 39.1792 19.7662 39.3234L19.7304 39.345C19.58 39.4387 19.4296 39.518 19.2649 39.6117C19.1145 39.691 18.9856 39.7631 18.8782 39.8136C18.8066 39.8568 18.7278 39.8929 18.6347 39.9506C18.5774 39.9722 18.4986 40.0227 18.3983 40.0659H18.3769C18.2981 40.1092 18.2265 40.138 18.1692 40.1596C18.0904 40.1957 18.0044 40.2173 17.9328 40.2389C17.7968 40.2822 17.6535 40.3182 17.5175 40.3326C17.3671 40.3543 17.2238 40.3543 17.0734 40.3471C16.7583 40.3254 16.4719 40.2101 16.214 40.0227C15.77 39.7055 15.5981 39.4099 15.505 38.862C15.4263 38.4439 15.4477 38.206 15.505 37.7878C15.5194 37.6797 15.5408 37.5644 15.5623 37.4274C15.5767 37.3481 15.6053 37.2039 15.6339 37.0381C15.6554 36.93 15.7056 36.7353 15.7629 36.4614V36.4109L15.8058 36.1874C15.9132 35.6756 16.0278 35.0772 16.1066 34.6303C16.1854 34.1833 16.2427 33.8589 16.2713 33.7147C16.3286 33.448 16.3788 33.1957 16.4217 32.965C16.4933 32.6117 16.4933 32.5757 16.5005 32.518C16.5363 32.345 16.5721 32.1864 16.6079 31.9557L16.6223 31.9413C16.6366 31.8692 16.6437 31.7755 16.6581 31.6962L16.6724 31.6169C16.6724 31.5953 16.6724 31.5592 16.6867 31.5015C16.6867 31.4799 16.6867 31.4583 16.6867 31.4222V31.3502V31.3357V31.3141V31.2997L16.6724 31.2853C16.6724 31.2853 16.6724 31.2853 16.6724 31.2709L16.6581 31.2564L16.6437 31.242V31.2276C16.5864 31.1699 16.5864 31.1555 16.565 31.1339C16.5435 31.1123 16.5148 31.0762 16.4862 31.0402C16.4504 30.9969 16.4146 30.9609 16.3788 30.932L16.2642 30.8167L16.2427 30.7951C16.1997 30.7518 16.1496 30.7013 16.1066 30.6509C16.0708 30.6148 16.0278 30.5716 15.9562 30.5139L15.9347 30.4923L15.7485 30.3193C15.6554 30.24 15.5838 30.1751 15.5408 30.1318L15.5194 30.1102C15.4263 30.0165 15.2973 29.9011 15.1613 29.7858L14.9894 29.6128C14.8032 29.4398 14.6528 29.31 14.5024 29.1586L14.3019 28.9712L14.2876 28.9567C13.9008 28.5819 13.5284 28.2286 13.1918 27.9258L12.9841 27.724L12.9698 27.7096L12.7979 27.5438C12.7048 27.4645 12.6261 27.3924 12.6117 27.378L12.5902 27.3563C12.5473 27.3131 12.4828 27.2626 12.4184 27.1833C12.3611 27.1401 12.3038 27.0752 12.2322 27.0175C12.1033 26.9022 12.0245 26.8084 11.9385 26.7219L11.8812 26.6643L11.8454 26.6282C11.7667 26.5345 11.7094 26.4624 11.695 26.4552C11.6592 26.3975 11.6163 26.3471 11.5805 26.2894C11.473 26.1596 11.3942 26.0227 11.337 25.8785C11.2653 25.7415 11.2224 25.5973 11.1866 25.4459C11.1508 25.309 11.1364 25.1504 11.1508 24.9918C11.1651 24.8404 11.1866 24.6962 11.2295 24.5448V24.5304C11.2868 24.379 11.3441 24.2348 11.4301 24.105C11.5088 23.9753 11.6163 23.8599 11.7308 23.7518C11.8454 23.6437 11.9743 23.5499 12.1176 23.4851C12.2322 23.413 12.3611 23.3697 12.5115 23.3193C12.5831 23.2832 12.6619 23.2616 12.7406 23.2472C12.7764 23.2327 12.8552 23.2111 12.977 23.1895H12.9913C13.0629 23.1751 13.1417 23.1679 13.2348 23.1462C13.3494 23.1318 13.4425 23.1102 13.5284 23.1102C13.6215 23.0958 13.6788 23.0886 13.7289 23.0742L13.9939 23.0381L14.2303 23.0165C14.3448 23.0021 14.4523 22.9949 14.4952 22.9949L14.5096 23.0886L14.4952 22.9804L14.9106 22.9372C15.3618 22.8867 15.8631 22.8218 16.2928 22.7642H16.3071L16.4719 22.7425H16.4862C16.8228 22.7065 17.1522 22.6632 17.2668 22.6488C17.5318 22.6128 17.7538 22.5911 17.9615 22.5695H17.9758C18.1763 22.5335 18.2193 22.5335 18.2551 22.5335C18.3482 22.5191 18.427 22.5118 18.5129 22.4974H18.5273L18.7564 22.4614L18.9784 22.4253L19.1646 22.4037L19.315 22.3821L19.3294 22.3677C19.3508 22.3677 19.401 22.3532 19.4439 22.346C19.4797 22.346 19.5156 22.3316 19.537 22.3244L19.5729 22.31C19.6087 22.2956 19.5872 22.31 19.6158 22.2956L19.6373 22.2595V22.2812C19.6373 22.2812 19.6373 22.2812 19.6373 22.2956L19.6731 22.2379C19.6874 22.2235 19.7089 22.2019 19.7161 22.1658H19.7304C19.7447 22.1514 19.7519 22.1226 19.7662 22.0937C19.802 22.036 19.8235 21.9856 19.845 21.9279C19.8808 21.8702 19.9166 21.8126 19.9381 21.7549C19.9596 21.7188 19.9954 21.6612 20.0455 21.553C20.0598 21.517 20.067 21.5026 20.1529 21.3296L20.1744 21.2863L20.3964 20.7817C20.4537 20.6663 20.511 20.5221 20.6041 20.3347L20.6399 20.2626L20.6901 20.1473L20.7116 20.1112C20.7617 19.9959 20.8261 19.8517 20.8978 19.7003L21.084 19.3038V19.2894L21.1771 19.102C21.306 18.8424 21.4062 18.6117 21.528 18.3738V18.3594C21.6211 18.1576 21.6426 18.1143 21.6712 18.0566L21.8717 17.6457C21.9075 17.5376 21.9505 17.4439 22.0078 17.3213C22.1009 17.1123 22.0221 17.3069 22.1009 17.1339V17.1123C22.1439 17.0185 22.1582 16.9969 22.1725 16.9753C22.2083 16.896 22.2441 16.8239 22.28 16.7518C22.3014 16.6941 22.3372 16.6076 22.3945 16.5067C22.4304 16.4346 22.4662 16.3697 22.5091 16.2688L22.5306 16.2472C22.5664 16.1751 22.6094 16.1174 22.6452 16.0597C22.681 16.0021 22.7168 15.93 22.7598 15.8723L22.7813 15.8507C22.86 15.7353 22.9675 15.62 23.0606 15.5263C23.1752 15.4109 23.3041 15.3172 23.433 15.2307H23.4473C23.5762 15.1586 23.7123 15.1009 23.8627 15.0577C24.0131 15.0216 24.1635 15 24.3139 15C24.4499 15 24.6075 15.0216 24.7579 15.0577C24.9083 15.1009 25.0515 15.1658 25.1876 15.2307C25.3237 15.31 25.4454 15.4037 25.56 15.5263C25.6674 15.62 25.7605 15.7353 25.8536 15.8507L25.8751 15.8723C25.9109 15.93 25.9467 16.0021 25.9897 16.0597C26.0255 16.1174 26.0613 16.1751 26.1043 16.2472L26.1186 16.2688C26.1616 16.3625 26.1974 16.4346 26.2332 16.5067C26.2905 16.6148 26.3406 16.6941 26.3621 16.7518C26.3979 16.8239 26.4194 16.8888 26.4552 16.9753C26.4695 16.9969 26.4767 17.0185 26.5268 17.1123L26.5411 17.1339C26.6199 17.3069 26.5268 17.1123 26.6342 17.3213C26.6915 17.4511 26.7273 17.5448 26.7775 17.6457L26.9637 18.0566C26.9995 18.1143 27.0066 18.1648 27.0997 18.3594L27.1141 18.3738C27.2215 18.6045 27.3361 18.8424 27.4507 19.102L27.5438 19.2894V19.3038L27.7443 19.7003C27.8159 19.8517 27.8732 19.9959 27.9305 20.1112L27.9448 20.1473L28.0021 20.2626L28.0379 20.3347C28.1167 20.5221 28.1883 20.6591 28.2384 20.7817L28.4676 21.2863L28.4891 21.3296C28.5679 21.5026 28.5679 21.517 28.5822 21.553H28.5965C28.6395 21.6612 28.6753 21.7188 28.6896 21.7549H28.704C28.7254 21.8126 28.7612 21.8702 28.7827 21.9279C28.8042 21.9856 28.84 22.036 28.8615 22.0937C28.8758 22.1153 28.8973 22.1514 28.9116 22.1658C28.9331 22.2019 28.9474 22.2235 28.9546 22.2379L28.9904 22.2956C28.9904 22.2812 28.9904 22.2812 28.9904 22.2812L29.0047 22.2956L29.0262 22.3316C29.062 22.346 29.0406 22.3316 29.062 22.346L29.105 22.3605C29.1265 22.3749 29.148 22.3821 29.1838 22.3821C29.2411 22.3965 29.2769 22.4037 29.3127 22.4037L29.327 22.4181L29.4774 22.4398L29.6636 22.4614L29.8713 22.4974L30.1005 22.5335H30.122C30.1936 22.5479 30.2724 22.5551 30.3655 22.5695C30.4013 22.5695 30.4442 22.5695 30.6448 22.6056H30.6662C30.8668 22.6272 31.0816 22.6488 31.3609 22.6849C31.4755 22.6993 31.8049 22.7425 32.1415 22.7786L32.3134 22.8002C32.7431 22.8579 33.2444 22.93 33.6956 22.9732H33.7099L34.1182 23.0165V23.1246L34.1325 23.0309C34.1755 23.0309 34.2829 23.0453 34.3903 23.0525L34.6195 23.0742H34.6338L34.8916 23.1102C34.9346 23.1246 35.0062 23.1318 35.0921 23.1462C35.1709 23.1462 35.264 23.1679 35.3858 23.1823C35.4789 23.2039 35.5577 23.2183 35.6293 23.2255H35.6436C35.7582 23.2472 35.8441 23.2688 35.8728 23.2832C35.9659 23.2976 36.0375 23.3193 36.1163 23.3553C36.2523 23.4058 36.3812 23.449 36.5101 23.5211C36.6391 23.5932 36.768 23.6869 36.8969 23.7878C37.0043 23.896 37.1046 24.0113 37.1905 24.1411C37.2693 24.2709 37.3409 24.4078 37.391 24.5664V24.5808C37.434 24.7322 37.4698 24.8764 37.4698 25.0278C37.4841 25.1936 37.4698 25.345 37.434 25.482C37.4125 25.6334 37.3552 25.7775 37.2979 25.9145C37.2263 26.0515 37.1475 26.1957 37.0544 26.3254C37.0115 26.3831 36.9757 26.4336 36.9255 26.4912C36.9112 26.5057 36.8539 26.5705 36.7751 26.6643L36.7536 26.7003L36.6964 26.758C36.6176 26.8373 36.5245 26.931 36.3956 27.0536C36.3383 27.1112 36.281 27.1689 36.2237 27.2194C36.1449 27.2987 36.0948 27.3491 36.0375 27.3924L36.0232 27.414C36.0017 27.4284 35.9157 27.4933 35.837 27.5798L35.6508 27.7456L35.6364 27.76L35.4287 27.9619C35.1065 28.2647 34.7197 28.6179 34.3473 28.9928L34.333 29.0072L34.1253 29.1946C33.9749 29.346 33.8317 29.4758 33.6455 29.6488L33.4593 29.8218C33.3304 29.9372 33.2015 30.0525 33.1012 30.1462L33.0797 30.1679C33.0368 30.2183 32.9651 30.276 32.8792 30.3553L32.6787 30.5283L32.6643 30.5499C32.5927 30.6076 32.5498 30.6581 32.514 30.6869C32.4567 30.7302 32.4065 30.7806 32.3636 30.8311L32.3421 30.8527L32.2275 30.9681C32.206 30.9897 32.1702 31.0257 32.1201 31.0762C32.0986 31.1123 32.0628 31.1483 32.0413 31.1699C32.027 31.1916 32.0198 31.206 31.9697 31.2636L31.9553 31.2781L31.941 31.2925V31.3069C31.9267 31.3213 31.9267 31.3213 31.9267 31.3213V31.3357V31.3502L31.9124 31.3718V31.3862L31.9267 31.4583C31.9267 31.4943 31.9267 31.516 31.9267 31.5376C31.9267 31.5953 31.9267 31.6313 31.941 31.6529L31.9553 31.7322C31.9697 31.8115 31.9768 31.9053 31.9912 31.9773V31.9918C32.0341 32.2225 32.0628 32.3811 32.0986 32.5541C32.1129 32.6117 32.1201 32.6478 32.1774 33.001C32.2203 33.2317 32.2848 33.484 32.3277 33.7508C32.3636 33.8877 32.4208 34.2194 32.4996 34.6663C32.5784 35.1133 32.7002 35.7116 32.8004 36.2235L32.8362 36.447L32.8505 36.4974C32.9078 36.7642 32.9436 36.966 32.9651 37.0742C33.0009 37.24 33.0224 37.3769 33.0368 37.4634C33.0582 37.6004 33.0797 37.723 33.094 37.8239C33.1657 38.2492 33.1871 38.4799 33.1084 38.898C33.0009 39.4459 32.8291 39.7415 32.385 40.0587C32.1415 40.2461 31.8408 40.3615 31.5328 40.3831C31.3824 40.3975 31.232 40.3975 31.0816 40.3687C30.9527 40.3543 30.8166 40.3254 30.6734 40.275C30.6018 40.2533 30.523 40.2317 30.4371 40.1957C30.3798 40.174 30.3082 40.1524 30.2294 40.102H30.2151C30.1076 40.0587 30.0432 40.0082 29.9716 39.9866C29.8785 39.9289 29.7997 39.8929 29.7281 39.8496C29.635 39.8064 29.5061 39.7343 29.3557 39.6478C29.1838 39.5541 29.0406 39.4748 28.8758 39.3811L28.84 39.3594C28.5965 39.2225 28.7612 39.3162 28.4533 39.1359C28.131 38.9629 27.5724 38.6457 27.1141 38.4006L27.0711 38.379V37.1246V36.5046C27.3074 36.6344 27.7371 36.8651 28.0451 37.0453H28.0594C28.575 37.3265 28.9403 37.5355 29.2482 37.7158L29.6636 37.9392L29.6851 37.9609C29.857 38.0546 30.0217 38.1483 30.1363 38.2204C30.2509 38.2925 30.3726 38.3502 30.4872 38.4078L30.5087 38.4222C30.5875 38.4655 30.6591 38.5015 30.7164 38.5304C30.788 38.5736 30.8453 38.6025 30.8811 38.6241V38.5736C30.9241 38.5953 30.9742 38.6241 31.0315 38.6457C31.0673 38.6601 31.0888 38.6674 31.1103 38.6818L31.1461 38.6962C31.2034 38.7106 31.2535 38.7178 31.2965 38.7322C31.3323 38.7322 31.3394 38.7322 31.3538 38.7322H31.3896C31.4039 38.7322 31.3896 38.7322 31.3896 38.7322C31.4039 38.7322 31.4111 38.7178 31.4111 38.7178L31.4325 38.7034C31.4469 38.689 31.4469 38.6818 31.454 38.6818L31.4683 38.6457C31.4683 38.6313 31.4827 38.6097 31.4827 38.5881C31.497 38.5448 31.497 38.4943 31.497 38.4222C31.497 38.3502 31.497 38.3069 31.497 38.2853C31.497 38.242 31.497 38.206 31.4827 38.1699L31.4683 38.0546C31.454 37.9464 31.4325 37.8311 31.4111 37.723L31.2607 36.9156L31.2392 36.8074L31.2249 36.7714V36.7497V36.7353L31.1819 36.5335C31.1103 36.1442 31.0172 35.7116 30.8883 34.9403C30.8453 34.7384 30.7952 34.4717 30.7164 34.0536C30.6734 33.794 30.609 33.5489 30.566 33.3182L30.5517 33.275L30.48 32.8568C30.4371 32.6334 30.3869 32.4243 30.3655 32.2729C30.344 32.1359 30.3296 32.0278 30.3225 31.9341L30.3082 31.8548C30.2938 31.7611 30.2867 31.689 30.2867 31.6529C30.2867 31.5808 30.2867 31.5232 30.2724 31.4799C30.2724 31.4222 30.2724 31.3646 30.2867 31.3069C30.2867 31.2492 30.2867 31.1916 30.301 31.1555C30.301 31.1195 30.3153 31.0762 30.3225 31.0257C30.3368 30.9537 30.344 30.8888 30.3798 30.8167C30.3798 30.7806 30.4013 30.7446 30.4227 30.7013C30.4371 30.6437 30.4586 30.5932 30.48 30.5644C30.523 30.4706 30.5875 30.3986 30.6448 30.3048L30.6591 30.2904L30.9026 29.9516H30.9456C30.967 29.9156 31.0172 29.8795 31.053 29.8363V29.8218L31.2034 29.6921C31.2463 29.6344 31.3108 29.5767 31.3681 29.5263C31.4397 29.4542 31.5113 29.3821 31.5686 29.3388L31.7691 29.1514C31.8121 29.1081 31.8837 29.0433 31.9697 28.964C32.1057 28.8342 32.2275 28.7333 32.3421 28.6107L32.5283 28.4449L32.5426 28.4305C32.65 28.3368 32.8219 28.171 32.9938 27.9979C33.0654 27.9258 33.1299 27.8682 33.2015 27.7961C33.6168 27.3852 33.9893 27.0463 34.3187 26.7436L34.5407 26.5417V26.5273H34.555C34.6338 26.4552 34.6266 26.4696 34.7197 26.3615C34.777 26.3182 34.8343 26.2678 34.9274 26.1885C34.999 26.1164 35.0563 26.0587 35.0921 26.0371C35.1494 25.9794 35.1996 25.9289 35.2282 25.9001L35.264 25.8568C35.3571 25.7848 35.4502 25.691 35.529 25.6117L35.5648 25.5685C35.5863 25.5541 35.6078 25.5252 35.6579 25.4604C35.6794 25.4243 35.7009 25.4027 35.7295 25.3811L35.7439 25.345C35.7797 25.3018 35.8011 25.2657 35.8155 25.2297C35.837 25.208 35.837 25.1864 35.8513 25.172V25.1576C35.8513 25.1432 35.8513 25.1359 35.8513 25.1215C35.8513 25.1215 35.8513 25.1215 35.8513 25.1071L35.837 25.0855C35.8226 25.0639 35.8226 25.0494 35.8226 25.0494C35.8083 25.0206 35.8083 25.0206 35.8083 25.0206L35.794 25.0062L35.7439 24.9701C35.7009 24.9485 35.6364 24.9197 35.5791 24.9125L35.5648 24.898C35.5433 24.898 35.5075 24.8836 35.4717 24.8764C35.4001 24.862 35.3643 24.8548 35.3285 24.8404C35.2569 24.826 35.1781 24.8187 35.1208 24.8043H35.1065C35.0635 24.7899 34.9919 24.7899 34.8988 24.7827L34.863 24.7683C34.8415 24.7683 34.7699 24.7539 34.6624 24.7467L34.4261 24.7106L34.2184 24.689C34.1396 24.6746 34.068 24.6746 33.9248 24.6529L33.5094 24.6097C33.1012 24.5664 32.65 24.5015 32.0914 24.4367L31.9267 24.415C31.7262 24.3934 31.54 24.3718 31.1676 24.3213H31.1461C30.8524 24.2781 30.6662 24.2492 30.4944 24.242H30.4586L30.4227 24.2276L30.1649 24.206C30.0503 24.1843 29.9358 24.1699 29.8641 24.1627L29.6278 24.1411L29.3986 24.105C29.3628 24.0906 29.2912 24.0906 29.1766 24.069C29.1408 24.0546 29.0835 24.0474 28.9904 24.033C28.9188 24.0185 28.8472 23.9969 28.8042 23.9969C28.7326 23.9753 28.6753 23.9609 28.6037 23.9392L28.5822 23.9248C28.5106 23.9032 28.4748 23.8888 28.4676 23.8888C28.3745 23.8527 28.3745 23.8527 28.3602 23.8527L28.3387 23.8311C28.2814 23.8095 28.2241 23.7878 28.174 23.7518C28.131 23.7302 28.0809 23.6941 28.0308 23.6581C27.9878 23.622 27.9377 23.586 27.8947 23.5499C27.8374 23.4923 27.8016 23.4418 27.7658 23.413L27.7443 23.3913H27.73C27.6942 23.3481 27.6584 23.2976 27.6011 23.2183C27.5653 23.1607 27.5223 23.103 27.4865 23.0525L27.5008 23.0381C27.4578 22.9804 27.422 22.9228 27.3934 22.8723L27.3719 22.8363C27.3504 22.8002 27.3289 22.7425 27.3003 22.6993C27.2645 22.6416 27.243 22.5839 27.1928 22.4974C27.1499 22.4037 27.1141 22.3316 27.0854 22.2884L26.9708 22.0433V22.0288L26.7488 21.5386L26.7345 21.517C26.6557 21.344 26.5841 21.1926 26.491 20.9763H26.4767L26.448 20.8105Z" fill="#2F313E" stroke="#2F313E" stroke-width="0.5"/>
<path d="M18.7922 24.3574H18.8495V24.343L18.7922 24.3574Z" fill="#2F313E" stroke="#2F313E" stroke-width="0.5"/>
<path d="M11.2079 16.3842C11.1291 16.3842 11.036 16.3986 10.9286 16.4058C10.8355 16.4202 10.7424 16.4274 10.6493 16.449C10.5561 16.4707 10.463 16.5067 10.3699 16.5428C10.2912 16.5788 10.2052 16.6148 10.1121 16.6725L10.0978 16.6869C10.0047 16.7302 9.92593 16.7951 9.85431 16.8383C9.78269 16.896 9.71107 16.9537 9.64662 17.0258C9.575 17.0834 9.53203 17.1411 9.4819 17.1988C9.43893 17.242 9.3888 17.3069 9.33867 17.3718L9.31719 17.3934L9.2957 17.4151V17.4295C9.27421 17.4511 9.25989 17.4871 9.23841 17.5088V17.5232L9.19544 17.5953L9.18111 17.6097L9.1453 17.6818L9.13098 17.6962L9.08085 17.7683L9.06653 17.8043L9.0522 17.8188L9.03788 17.8332L8.99491 17.9413H8.98059L8.94478 18.0206L8.93046 18.035L8.87316 18.1504V18.1648L8.83735 18.2369C8.81587 18.2729 8.80155 18.309 8.79438 18.345H8.78006L8.74425 18.4387L8.72277 18.4748H8.73709L8.70128 18.5469L8.68696 18.5685C8.67264 18.5829 8.67264 18.5901 8.67264 18.6045H8.65831V18.619C8.63683 18.655 8.62251 18.6911 8.61534 18.7271L8.60102 18.7415C8.56521 18.8136 8.54373 18.8713 8.52224 18.929L8.46495 19.0443H8.47927L8.35036 19.311V19.3255L8.24294 19.5489L8.22861 19.5634C8.21429 19.5994 8.17132 19.6931 8.0997 19.8301L7.96363 20.1257L7.89202 20.2626V20.277V20.2915L7.74162 20.6087L7.66284 20.7817L7.59123 20.9187L7.5769 20.9547L7.5411 21.034L7.52677 21.0484L7.50529 21.1061L7.41219 21.2935V21.3079C7.39786 21.3296 7.39786 21.3296 7.34057 21.4593C6.94668 22.3172 6.88939 22.3244 6.51698 22.3605C6.40239 22.3749 6.27348 22.3821 6.12309 22.4037L6.0085 22.4181L5.8223 22.4398C5.76501 22.4398 5.68623 22.4542 5.59313 22.4614L5.52151 22.4758C5.50003 22.4758 5.25653 22.5119 4.94142 22.5551H4.91993H4.89845L4.76954 22.5695L4.75521 22.5839C4.6836 22.5839 4.47591 22.62 4.21809 22.6416C3.9173 22.6777 3.77407 22.6993 3.68097 22.7137H3.66664H3.36585L3.07223 22.7498L2.97913 22.7642H2.94332L2.85022 22.7786L2.5924 22.8146C2.17702 22.8867 1.75448 22.9516 1.33911 23.139C0.794823 23.3842 0.336477 23.7807 0.107304 24.4943L0.0929809 24.552C0.0714959 24.6313 0.0428494 24.7178 0.0356877 24.7899C0.0142028 24.8836 -0.00012054 24.9774 -0.00012054 25.0711V25.0855C-0.0359288 25.5973 0.114466 26.0443 0.357962 26.4408C0.56565 26.7796 0.837792 27.0608 1.10277 27.3203L1.70435 27.8826H1.71868L1.86907 28.034H1.88339H1.86907C2.13405 28.2791 2.442 28.5458 2.70698 28.8198L2.95048 29.0577C3.00777 29.1154 3.06507 29.173 3.151 29.2451L3.27991 29.3605L3.43031 29.4974C3.69529 29.757 3.93162 29.9444 4.11783 30.0958C4.35416 30.2832 4.37565 30.3049 4.26106 30.8888V30.9032C4.24674 30.9537 4.27538 30.8095 4.20377 31.2276L4.13215 31.5232C4.08918 31.7683 4.08918 31.8043 4.07486 31.8404V31.8548L4.03189 32.1143L3.93879 32.5685V32.5829C3.9173 32.7559 3.80988 33.2822 3.71678 33.7436L3.70245 33.794L3.66664 33.9671L3.65232 34.0247L3.60935 34.2626L3.57354 34.4645L3.53773 34.6519V34.6663C3.51625 34.7745 3.51625 34.7817 3.50193 34.8033C3.48044 34.9331 3.46612 35.0124 3.45896 35.0989C3.43747 35.2863 3.41599 35.4377 3.41599 35.6396C3.41599 35.827 3.43031 36 3.45896 36.2235C3.53773 36.6344 3.68097 36.9732 3.87433 37.2328C4.15364 37.6293 4.52604 37.8672 4.95574 37.9825C5.32815 38.0762 5.72204 38.0762 6.10877 37.9969C6.81777 37.8672 7.54826 37.4923 8.0639 37.139L8.17848 37.067L8.32888 36.9877L8.3432 36.9732C8.57953 36.8435 8.84452 36.6921 9.12382 36.5407L9.23841 36.483C9.44609 36.3749 9.61081 36.2812 9.76121 36.2019L10.2124 35.9423L10.4201 35.827L10.4416 35.8126L10.4559 35.7982L10.6564 35.69L10.8211 35.5963L10.9858 35.5026L11.1004 35.4449L11.1148 35.4305L11.1506 35.4161L11.1864 35.3944L11.2079 35.38L11.2293 35.3944L11.2508 35.4161L11.2866 35.4305L11.301 35.4449L11.4155 35.5026L11.5803 35.5963L11.745 35.69C11.745 35.7044 13.872 36.8867 14.3876 37.1535L14.4306 37.1895L14.538 37.2472L14.9104 35.5603H14.8961L14.8245 35.517L14.6956 35.4449L14.5237 35.3368H14.5094L11.8094 33.8517C11.8094 33.8517 11.788 33.8373 11.7736 33.8373L11.6805 33.794L11.6447 33.7796L11.6089 33.7652L11.6018 33.7436L11.5588 33.7292L11.4872 33.7075L11.4514 33.6931L11.301 33.6715L11.2795 33.6571H11.258H11.2365H11.1721H11.1577H11.1219L11.1076 33.6715L10.9429 33.6931L10.9214 33.7075L10.8498 33.7292L10.814 33.7436L10.7925 33.758L10.7567 33.7724L10.7209 33.7868L10.6278 33.8301H10.6134L10.5776 33.8445L10.592 33.8589C10.549 33.8733 10.4989 33.895 10.4845 33.895C10.4416 33.9166 10.4058 33.9454 10.3556 33.9671L10.3413 33.9815C10.2912 34.0031 10.2482 34.0247 10.2124 34.0536L10.0262 34.1473V34.1617L9.85431 34.2554L9.64662 34.3708V34.3852H9.6323H9.61797L9.58217 34.4068H9.56784C8.67264 34.9114 7.41935 35.7044 6.51698 36.1298C6.28065 36.2451 6.03715 36.3316 5.80798 36.3749C5.6361 36.4109 5.47138 36.4109 5.35679 36.3893C5.28518 36.3677 5.22788 36.3316 5.19207 36.274C5.13478 36.2019 5.08465 36.0865 5.06317 35.9207C5.04168 35.8126 5.02736 35.7333 5.02736 35.6612C5.02736 35.5891 5.04884 35.4882 5.07033 35.344H5.056H5.08465C5.09897 35.2503 5.10614 35.1566 5.12046 35.0845L5.13478 35.0484C5.1491 34.9691 5.14911 34.9691 5.14911 34.9547C5.16343 34.9114 5.16343 34.9187 5.18491 34.7817L5.22072 34.6087L5.27801 34.3491V34.3059L5.31382 34.1329L5.32815 34.0752C5.39976 33.758 5.47138 33.3831 5.56448 32.8929L5.64326 32.4387L5.68623 32.1792C5.74352 31.9197 5.7292 31.9197 5.74352 31.8764L5.80082 31.5809L5.81514 31.5232L5.87243 31.2204V31.206C6.17322 29.6488 6.07296 29.5695 5.14911 28.8198C5.09181 28.7621 5.00587 28.7044 4.92709 28.6324L4.41862 28.1638L4.40429 28.1493L4.38997 28.1349C4.28255 28.0556 4.16796 27.9331 4.03905 27.8033H4.02473V27.7889L3.88865 27.6591V27.6447H3.87433L3.86001 27.6303C3.70961 27.4789 3.55922 27.3347 3.40882 27.1977L3.42315 27.1833L2.80725 26.6354L2.67117 26.5057L2.63537 26.4696L2.52794 26.3759L2.49213 26.3543V26.3399L2.45632 26.3182L2.37755 26.2389L2.32025 26.1813L2.24864 26.1092L2.22715 26.0876C2.05527 25.9217 1.87623 25.7487 1.76165 25.5613C1.68287 25.4315 1.63274 25.2946 1.63274 25.1504C1.63274 25.1287 1.64706 25.1071 1.64706 25.0783C1.66138 25.0567 1.66138 25.035 1.66138 25.0062L1.67571 24.9918C1.733 24.8043 1.86191 24.689 2.02663 24.6169C2.27012 24.5088 2.6282 24.4511 2.97196 24.4078L3.15817 24.3862C3.68097 24.3285 4.0104 24.3141 5.71488 24.069H5.7292H5.75068C5.8223 24.0546 5.92256 24.0474 6.01566 24.033L6.25916 24.0113H6.27348L6.28781 23.9969H6.30929C6.45253 23.9753 6.5886 23.9609 6.70318 23.9537C7.89918 23.8239 8.0639 23.8167 8.85168 22.1009V22.0865C8.87316 22.0289 8.866 22.0721 8.92329 21.9496L9.0164 21.7477L9.03788 21.69L9.07369 21.6107L9.08801 21.5963L9.10233 21.5747L9.17395 21.4233L9.24557 21.2575L9.39596 20.9547V20.9403L9.46758 20.7889L9.61797 20.4933C9.63946 20.4356 9.67527 20.3563 9.74688 20.1977C9.78269 20.1257 9.8185 20.0464 9.86147 19.9526V19.9382L10.0119 19.6138L10.0262 19.5922C10.062 19.5129 10.0835 19.4552 10.1193 19.3831V19.3687C10.1336 19.3543 10.1336 19.3471 10.1408 19.3327C10.1551 19.2966 10.1766 19.2534 10.1981 19.2029L10.2124 19.1813V19.1669L10.2339 19.1308V19.1164L10.2554 19.0803L10.2912 18.9866L10.3127 18.9362L10.5132 18.5469L10.549 18.5036L10.5705 18.4532L10.6134 18.3811L10.6493 18.3306V18.3162C10.6707 18.2946 10.6994 18.2729 10.7209 18.2441C10.7567 18.208 10.7782 18.172 10.7925 18.1648C10.8068 18.1504 10.8283 18.1287 10.8641 18.1071C10.8856 18.0855 10.9071 18.0711 10.9357 18.0639C10.95 18.0639 10.9572 18.0494 10.993 18.0422V18.0278C11.0145 18.0278 11.036 18.0134 11.0646 18.0062C11.0861 18.0062 11.1148 18.0062 11.1434 17.9918C11.1577 17.9918 11.1792 17.9918 11.215 17.9918C11.2508 17.9918 11.2723 17.9918 11.2866 17.9918C11.3081 18.0062 11.3296 18.0062 11.3654 18.0062C11.3869 18.0206 11.4084 18.0278 11.4227 18.0278V18.0422C11.4585 18.0567 11.48 18.0639 11.4943 18.0639C11.5086 18.0783 11.5301 18.0855 11.5659 18.1071C11.5874 18.1287 11.6089 18.1504 11.6376 18.1648C11.6519 18.1792 11.6734 18.208 11.7092 18.2441C11.7307 18.2657 11.7521 18.2873 11.7665 18.3162L11.7808 18.3306L11.8023 18.3811L11.8452 18.4532L11.8811 18.5036L11.9025 18.5469L12.1031 18.9362L12.1246 18.9866L12.1675 19.0803L12.1818 19.1164L12.1962 19.1308L12.2105 19.1669V19.1813L12.2248 19.2029C12.2463 19.2462 12.2678 19.2966 12.2964 19.3327C12.2964 19.3471 12.2964 19.3543 12.3108 19.3687V19.3831C12.3466 19.4552 12.3824 19.5129 12.4039 19.5922L12.4182 19.6138L12.5686 19.9382V19.9743H12.5829C12.6187 20.068 12.6545 20.1473 12.6903 20.2194C12.7619 20.3708 12.8049 20.4645 12.8264 20.5149L12.9696 20.8105L13.0412 20.9619V20.9763H13.0556L13.1916 21.2791L13.2489 21.3872L13.2704 21.4449L13.3277 21.5963L13.3492 21.6179V21.6324L13.385 21.7117L13.4065 21.7549L13.607 22.2091L15.3258 21.9856L15.247 21.8126L15.0751 21.4377C14.5738 20.3131 14.0295 19.1308 13.4781 18.0206L13.4351 17.9269L13.3778 17.8188V17.8115L13.3635 17.7971L13.3492 17.7611L13.2919 17.689V17.6746L13.2489 17.6025V17.5881L13.1988 17.516L13.1845 17.5016C13.1702 17.4799 13.1487 17.4439 13.1272 17.4223V17.4078L13.1057 17.3862L13.0914 17.3646C13.0341 17.2925 12.9839 17.2348 12.941 17.1916C12.9052 17.1339 12.8479 17.0762 12.7763 17.0186C12.7046 16.9465 12.6402 16.8888 12.5686 16.8311C12.497 16.7879 12.4182 16.723 12.3322 16.6797L12.3108 16.6653C12.2177 16.6076 12.1389 16.5716 12.0529 16.5355C11.9598 16.4995 11.8667 16.4635 11.7736 16.4418C11.6805 16.4202 11.5874 16.4058 11.5086 16.3986C11.3797 16.3914 11.2795 16.3842 11.2079 16.3842Z" fill="#2F313E" stroke="#2F313E" stroke-width="0.5"/>
<path d="M37.7992 16.3842C37.878 16.3842 37.9711 16.3986 38.0785 16.4058C38.1716 16.4202 38.2647 16.4274 38.3578 16.449C38.4509 16.4707 38.544 16.5067 38.6371 16.5428C38.7087 16.5788 38.8018 16.6148 38.8949 16.6725L38.9092 16.6869C39.0023 16.7302 39.0811 16.7951 39.1527 16.8383C39.2243 16.896 39.2888 16.9537 39.3604 17.0258C39.4177 17.0834 39.475 17.1411 39.5251 17.1988C39.5681 17.242 39.6182 17.3069 39.6612 17.3718L39.6827 17.3934L39.7042 17.4151V17.4295C39.7185 17.4511 39.74 17.4871 39.7615 17.5088V17.5232L39.8116 17.5953L39.8259 17.6097L39.8617 17.6818L39.8761 17.6962L39.919 17.7683L39.9334 17.8043L39.9477 17.8188L39.962 17.8332L40.005 17.9413H40.0193L40.0551 18.0206L40.0694 18.035L40.1267 18.1504V18.1648L40.1625 18.2369C40.1768 18.2729 40.1983 18.309 40.2055 18.345L40.2556 18.4387L40.2699 18.4748L40.3058 18.5469L40.3201 18.5685C40.3344 18.5829 40.3344 18.5901 40.3344 18.6045L40.3487 18.619C40.3631 18.655 40.3845 18.6911 40.3917 18.7271L40.406 18.7415C40.4418 18.8136 40.4633 18.8713 40.4848 18.929L40.5421 19.0443H40.5278L40.6567 19.311V19.3255L40.7641 19.5489L40.7784 19.5634C40.7928 19.5994 40.8357 19.6931 40.9073 19.8301L41.0362 20.1257L41.1079 20.2626H41.1222V20.277V20.2915L41.2726 20.6087L41.3514 20.7817L41.423 20.9187L41.4373 20.9547L41.4731 21.034L41.4874 21.0484L41.5089 21.1061L41.5877 21.2935L41.602 21.3079C41.6163 21.3296 41.6163 21.3296 41.6736 21.4593C42.0675 22.3172 42.1177 22.3244 42.4972 22.3605C42.6118 22.3749 42.7407 22.3821 42.8911 22.4037L42.9985 22.4181L43.1991 22.4398C43.2564 22.4398 43.3423 22.4542 43.4354 22.4614L43.4927 22.4758C43.5285 22.4758 43.772 22.5119 44.0871 22.5551H44.1086H44.1301L44.2447 22.5695L44.2661 22.5839C44.3378 22.5839 44.5455 22.62 44.8033 22.6416C45.1041 22.6777 45.2473 22.6993 45.3404 22.7137H45.3547L45.677 22.7498L45.9706 22.7858L46.0637 22.8002H46.0995L46.1926 22.8146L46.4505 22.8507C46.8658 22.9228 47.2884 22.9877 47.7037 23.1751C48.248 23.4202 48.7064 23.8167 48.9355 24.5304L48.9499 24.5881C48.9714 24.6674 48.9928 24.7539 49.0072 24.826C49.0286 24.9197 49.043 25.0134 49.043 25.1071V25.1215C49.0645 25.6334 48.9141 26.0803 48.6849 26.4768C48.4629 26.8157 48.1979 27.0968 47.9258 27.3563H47.9401L47.3385 27.9187H47.3242L47.1738 28.07H47.1595C46.9016 28.3152 46.6008 28.5819 46.3359 28.8558L46.0924 29.0937C46.0351 29.1514 45.9778 29.2091 45.8918 29.2812L45.7629 29.3965L45.6125 29.5335C45.3476 29.793 45.1112 29.9804 44.925 30.1318C44.6958 30.3193 44.6672 30.3409 44.789 30.9248V30.9393C44.8033 30.9897 44.7746 30.8455 44.8462 31.2637L44.9035 31.5592C44.9608 31.8043 44.9608 31.8404 44.9752 31.8764V31.8908L45.0253 32.1504L45.1041 32.6045L45.1184 32.619C45.1399 32.792 45.2473 33.3182 45.3404 33.7796L45.3547 33.8301L45.3905 34.0031V34.0608L45.4478 34.2987L45.4836 34.5005L45.5194 34.688V34.7024C45.5409 34.8105 45.5409 34.8177 45.5552 34.8394C45.5767 34.9691 45.5911 35.0484 45.5982 35.1349C45.6197 35.3224 45.6412 35.4738 45.6412 35.6756C45.6412 35.863 45.6269 36.0361 45.5839 36.2595C45.5123 36.6705 45.3762 37.0093 45.1757 37.2688C44.8964 37.6653 44.524 37.9032 44.0943 38.0186C43.7219 38.1123 43.328 38.1123 42.9341 38.033C42.2394 37.9032 41.5018 37.5283 40.9933 37.1751L40.8787 37.103L40.714 37.0237V37.0093C40.4848 36.8795 40.2127 36.7281 39.9334 36.5767L39.8044 36.5191C39.6039 36.4109 39.4464 36.3172 39.296 36.2379L38.8448 35.9784L38.6371 35.863L38.6156 35.8486L38.6013 35.8342L38.4008 35.7261L38.236 35.6324L38.0642 35.5386L37.9567 35.481L37.9353 35.4665L37.9138 35.4521L37.878 35.4305L37.8565 35.4161L37.835 35.4305L37.8135 35.4521L37.7777 35.4665L37.7634 35.481L37.6488 35.5386L37.4841 35.6324L37.3122 35.7261C37.3265 35.7405 35.1923 36.9228 34.6839 37.1895L34.6266 37.2256L34.5335 37.2832L34.1611 35.5963H34.1754L34.247 35.5531L34.3759 35.481L34.5478 35.3728L37.2549 33.8878L37.2764 33.8733L37.3838 33.8301L37.4196 33.8157L37.4554 33.8013L37.4697 33.7868L37.5127 33.7724L37.5843 33.7508L37.6201 33.7364L37.7705 33.7147L37.7849 33.7003H37.8207H37.835H37.9066H37.9209H37.9567L37.9711 33.7147L38.1358 33.7364L38.1573 33.7508L38.2289 33.7724L38.2719 33.7868L38.2933 33.8013L38.3291 33.8157L38.365 33.8301L38.4581 33.8733H38.4724L38.4939 33.8878V33.9022C38.5368 33.9166 38.587 33.9382 38.6013 33.9382C38.6371 33.9599 38.6801 33.9887 38.7302 34.0103L38.7445 34.0247C38.7875 34.0464 38.8376 34.068 38.8734 34.0968L39.0453 34.1905L39.0596 34.205L39.2315 34.2987L39.4392 34.414V34.4284H39.4535L39.5037 34.4501H39.518C40.4132 34.9547 41.6665 35.7477 42.5688 36.173C42.798 36.2884 43.0487 36.3749 43.2778 36.4181C43.4497 36.4542 43.6144 36.4542 43.729 36.4326C43.8006 36.4109 43.8579 36.3749 43.8937 36.3172C43.951 36.2451 44.0012 36.1298 44.0227 35.964C44.0441 35.8558 44.0585 35.7765 44.0441 35.7044C44.0441 35.6324 44.0298 35.5314 44.0083 35.3872C43.994 35.2935 43.9868 35.1998 43.9725 35.1277L43.9582 35.0917C43.9439 35.0124 43.9439 35.0124 43.9439 34.998C43.9296 34.9547 43.9296 34.9619 43.9081 34.8249L43.8723 34.6519L43.815 34.3924L43.8006 34.3491L43.7792 34.1761L43.7648 34.1185C43.6932 33.8013 43.6216 33.4264 43.5285 32.9362L43.4497 32.482L43.328 32.1576C43.2707 31.8981 43.2707 31.8981 43.2707 31.8548L43.2134 31.5881L43.1991 31.5304L43.1418 31.2276V31.2132C42.841 29.656 42.9341 29.5767 43.8508 28.827C43.9224 28.7693 44.0012 28.7117 44.0799 28.6396L44.5956 28.171L44.6099 28.1566L44.6242 28.1421C44.7173 28.0628 44.8462 27.9403 44.9752 27.8105L44.9895 27.7961L45.1327 27.6663V27.6519H45.147L45.1614 27.6375C45.3117 27.4861 45.4621 27.3419 45.6125 27.205L45.5982 27.1905L46.1998 26.6427L46.3502 26.5129L46.386 26.4768L46.4934 26.3831L46.5292 26.3615V26.3471L46.565 26.3255L46.6438 26.2462L46.7011 26.1885L46.7584 26.1164L46.7942 26.0948C46.9661 25.929 47.1451 25.7559 47.2597 25.5685C47.3385 25.4387 47.3886 25.3018 47.3886 25.1576C47.3743 25.136 47.3743 25.1143 47.3743 25.0855C47.36 25.0639 47.36 25.0422 47.3528 25.0134V24.999C47.2955 24.8115 47.1666 24.6962 47.0019 24.6241C46.7584 24.516 46.4003 24.4583 46.0566 24.4151L45.8704 24.3934C45.3476 24.3358 45.0181 24.3213 43.3137 24.0762H43.2778H43.2564C43.1776 24.0618 43.0845 24.0546 42.9771 24.0402L42.7336 24.0186L42.7192 24.0041H42.6978C42.5474 23.9825 42.4184 23.9681 42.3039 23.9609C41.1079 23.8311 40.9288 23.8239 40.1554 22.1082V22.0937C40.1339 22.0361 40.141 22.0793 40.0837 21.9568L39.9906 21.7549L39.9692 21.6972L39.9334 21.6179L39.919 21.6035L39.9047 21.5819L39.8331 21.4305L39.7615 21.2647H39.7471L39.6111 20.9619V20.9475L39.5395 20.7961L39.3891 20.5005C39.3676 20.4429 39.3318 20.3636 39.2602 20.205C39.2243 20.1329 39.1885 20.0536 39.1456 19.9599L39.1312 19.9454H39.1456L38.9952 19.621L38.9809 19.5994C38.945 19.5201 38.9236 19.4624 38.8878 19.3903L38.8734 19.3759C38.8734 19.3615 38.8734 19.3543 38.8591 19.3399C38.8448 19.3038 38.8233 19.2606 38.8018 19.2101L38.7875 19.1885V19.1741L38.766 19.138L38.7517 19.1236L38.7374 19.0876L38.7016 18.9938L38.6657 18.9434L38.4795 18.5541L38.4437 18.5108L38.4222 18.4604L38.3793 18.3883L38.3435 18.3378L38.3291 18.3234C38.3148 18.3018 38.2933 18.2801 38.2719 18.2513C38.236 18.2153 38.2146 18.1792 38.2002 18.172C38.1788 18.1576 38.1501 18.136 38.1286 18.1143C38.1071 18.0927 38.0785 18.0783 38.057 18.0711C38.0427 18.0711 38.0355 18.0567 37.9997 18.0494V18.035C37.9782 18.035 37.9567 18.0206 37.9281 18.0134C37.9066 18.0134 37.8851 18.0134 37.8493 17.999C37.835 17.999 37.8135 17.999 37.7777 17.999C37.7419 17.999 37.7204 17.999 37.7061 17.999C37.6846 18.0134 37.6488 18.0134 37.6273 18.0134C37.6058 18.0278 37.5843 18.035 37.57 18.035V18.0494C37.5342 18.0639 37.5127 18.0711 37.4984 18.0711C37.4841 18.0855 37.4626 18.0927 37.4268 18.1143C37.4053 18.136 37.3838 18.1576 37.3552 18.172C37.3408 18.1864 37.3193 18.2153 37.2835 18.2513C37.2621 18.2729 37.2406 18.2946 37.2262 18.3234L37.2119 18.3378L37.1904 18.3883L37.1475 18.4604L37.1117 18.5108L37.0902 18.5541L36.8897 18.9434L36.8682 18.9938L36.8252 19.0876L36.8109 19.1236L36.7965 19.138L36.7822 19.1741V19.1885L36.7607 19.2101C36.7464 19.2534 36.7249 19.3038 36.7034 19.3399C36.7034 19.3543 36.6891 19.3615 36.6891 19.3759V19.3903C36.6533 19.4624 36.6175 19.5201 36.596 19.5994L36.5745 19.621L36.4385 19.9454V19.9743H36.4528C36.417 20.068 36.374 20.1473 36.3454 20.2194C36.2738 20.3708 36.2308 20.4645 36.2021 20.5149L36.0661 20.8105L35.9944 20.9619L35.9801 20.9763L35.8369 21.2791L35.7796 21.3872L35.7581 21.4449L35.6865 21.5963L35.6722 21.6179V21.6324L35.6364 21.7117L35.6149 21.7549L35.4144 22.2091L33.6956 21.9856L33.7743 21.8126L33.9462 21.4377C34.4332 20.3131 34.9918 19.1308 35.5433 18.0206L35.5862 17.9269L35.6435 17.8188V17.8115L35.6578 17.7971L35.6722 17.7611L35.7151 17.689L35.7295 17.6746L35.7724 17.6025V17.5881L35.8154 17.516V17.5016C35.8369 17.4799 35.8584 17.4439 35.887 17.4223V17.4078L35.9013 17.3862L35.9228 17.3646C35.9801 17.2925 36.0303 17.2348 36.0589 17.1916C36.1019 17.1339 36.1663 17.0762 36.2308 17.0186C36.2881 16.9465 36.3597 16.8888 36.4385 16.8311C36.5101 16.7879 36.5745 16.723 36.6676 16.6797L36.6891 16.6653C36.7822 16.6076 36.861 16.5716 36.9469 16.5355C37.0257 16.4995 37.1188 16.4635 37.2262 16.4418C37.3194 16.4202 37.4125 16.4058 37.4912 16.3986C37.6273 16.3914 37.7204 16.3842 37.7992 16.3842Z" fill="#2F313E" stroke="#2F313E" stroke-width="0.5"/>
</g>
<defs>
<clipPath id="clip0_1_2842">
<rect width="49" height="49" fill="white" transform="translate(0 15)"/>
</clipPath>
</defs>
</svg>
