<svg width="32" height="32" viewBox="0 0 32 32" fill="none" xmlns="http://www.w3.org/2000/svg">
<path d="M21.1036 5.01697H4.29237C2.48462 5.01697 1 6.50159 1 8.31807V21.8718C1 23.6883 2.48462 25.1642 4.29237 25.1642H7.58475V31.2162L13.8988 25.1642H23.6536C25.4614 25.1642 26.946 23.6796 26.946 21.8718V15.0513" stroke="white" stroke-width="1.5" stroke-miterlimit="22.9256" stroke-linecap="round" stroke-linejoin="round"/>
<path d="M5.07837 13.6721H11.6544M5.07837 16.458H10.4318M5.07837 19.2351H9.66324" stroke="white" stroke-width="1.5" stroke-miterlimit="22.9256" stroke-linecap="round" stroke-linejoin="round"/>
<path d="M25.4351 12.6587L30.5702 7.54108L26.1774 3.14834M12.3792 19.5403L13.855 18.0644M28.3607 1L31.0068 3.64612L17.2784 17.3745C14.545 20.108 11.8988 17.4706 14.6323 14.7284L28.3607 1Z" stroke="white" stroke-width="1.5" stroke-miterlimit="22.9256" stroke-linecap="round" stroke-linejoin="round"/>
</svg>
