<svg width="18" height="18" viewBox="0 0 18 18" fill="none" xmlns="http://www.w3.org/2000/svg">
<g clip-path="url(#clip0_1_1706)">
<path d="M9.00054 0C4.03746 0 0 4.03746 0 9.00054C0 13.9625 4.03746 18 9.00054 18C13.9625 18 18 13.9625 18 9.00054C18 4.03746 13.9625 0 9.00054 0ZM9.00054 16.033C5.12173 16.033 1.96701 12.8783 1.96701 9.00107C1.96701 5.1228 5.12173 1.96701 9.00054 1.96701C12.8783 1.96701 16.0325 5.12226 16.0325 9.00054C16.033 12.8783 12.8783 16.033 9.00054 16.033Z" fill="#1D1D1B"/>
<path d="M9.77981 9.01128V5.23912C9.77981 4.81732 9.43786 4.47644 9.01713 4.47644C8.59639 4.47644 8.25391 4.81732 8.25391 5.23912V9.25407C8.25391 9.2664 8.25659 9.27819 8.25766 9.28945C8.24694 9.49687 8.31929 9.7075 8.47794 9.86561L11.317 12.7052C11.615 13.0032 12.0979 13.0032 12.3948 12.7052C12.6928 12.4072 12.6933 11.9243 12.3948 11.6263L9.77981 9.01128Z" fill="#1D1D1B"/>
</g>
<defs>
<clipPath id="clip0_1_1706">
<rect width="18" height="18" fill="white"/>
</clipPath>
</defs>
</svg>
