<svg width="38" height="38" viewBox="0 0 38 38" fill="none" xmlns="http://www.w3.org/2000/svg">
<path d="M28.9988 14.879C26.2265 17.6384 22.2787 17.0865 19.4952 14.3271C16.7229 11.5676 16.1573 7.6382 18.9407 4.86773L20.0608 3.75291C22.8331 0.993478 26.781 1.54537 29.5644 4.3048C32.3368 7.06424 32.9023 10.9937 30.1189 13.7641L28.9988 14.879Z" stroke="#2F313E" stroke-width="1.3" stroke-miterlimit="10"/>
<path d="M29.5533 14.3272C28.3224 15.5523 25.0621 14.3051 22.2898 11.5456C19.5174 8.7862 18.2643 5.54111 19.4952 4.31592" stroke="#2F313E" stroke-width="1.3" stroke-miterlimit="10"/>
<path d="M17.1443 9.87891L15.3478 12.6604V13.7752L4.87938 24.537C4.29164 25.1551 4.26946 26.0271 4.74631 26.5017L6.76458 28.4885C7.25252 28.9742 8.13967 28.8969 8.74959 28.3119L20.0386 18.2455H21.1587L23.8867 16.5678" stroke="#2F313E" stroke-width="1.3" stroke-miterlimit="10"/>
<path d="M32.8247 22.9585L31.0504 24.7245" stroke="#2F313E" stroke-width="1.3" stroke-miterlimit="10"/>
<path d="M37.2605 18.5437L35.4862 20.3097" stroke="#2F313E" stroke-width="1.3" stroke-miterlimit="10"/>
<path d="M35.4862 22.9585L37.2605 24.7245" stroke="#2F313E" stroke-width="1.3" stroke-miterlimit="10"/>
<path d="M31.0504 18.5437L32.8247 20.3097" stroke="#2F313E" stroke-width="1.3" stroke-miterlimit="10"/>
<path d="M6.21011 4.41504H3.54865" stroke="#2F313E" stroke-width="1.3" stroke-miterlimit="10"/>
<path d="M12.4201 4.41504H9.75867" stroke="#2F313E" stroke-width="1.3" stroke-miterlimit="10"/>
<path d="M7.98438 6.18115V8.83021" stroke="#2F313E" stroke-width="1.3" stroke-miterlimit="10"/>
<path d="M7.98438 0V2.64906" stroke="#2F313E" stroke-width="1.3" stroke-miterlimit="10"/>
<path d="M2.66144 13.2454V15.0114" stroke="#2F313E" stroke-width="1.3" stroke-miterlimit="10"/>
<path d="M2.66144 16.7776V18.5436" stroke="#2F313E" stroke-width="1.3" stroke-miterlimit="10"/>
<path d="M1.77431 15.8945H0" stroke="#2F313E" stroke-width="1.3" stroke-miterlimit="10"/>
<path d="M5.32295 15.8945H3.54865" stroke="#2F313E" stroke-width="1.3" stroke-miterlimit="10"/>
<path d="M5.62233 27.6826L4.83498 28.4663C2.87215 30.4199 2.87215 33.5878 4.83498 35.5415C6.7978 37.4951 9.98047 37.4951 11.9433 35.5415L20.8038 26.7223C22.445 25.0887 25.1064 25.0777 26.7588 26.6892C28.4111 28.3007 28.4222 30.9387 26.792 32.5613L24.1971 35.1441" stroke="#2F313E" stroke-width="1.3" stroke-miterlimit="10" stroke-linecap="round"/>
</svg>
